<svg xmlns="http://www.w3.org/2000/svg" xmlns:xlink="http://www.w3.org/1999/xlink" width="500" zoomAndPan="magnify" viewBox="0 0 375 374.999991" height="500" preserveAspectRatio="xMidYMid meet" version="1.0"><defs><g/><clipPath id="c423643aa7"><path d="M 1.304688 0 L 375 0 L 375 375 L 1.304688 375 Z M 1.304688 0 " clip-rule="nonzero"/></clipPath><clipPath id="5250cf0ad3"><path d="M 188.152344 0 C 84.960938 0 1.304688 83.945312 1.304688 187.5 C 1.304688 291.054688 84.960938 375 188.152344 375 C 291.34375 375 375 291.054688 375 187.5 C 375 83.945312 291.34375 0 188.152344 0 Z M 188.152344 0 " clip-rule="nonzero"/></clipPath><clipPath id="1e316eeb6f"><path d="M 0.304688 0 L 374 0 L 374 375 L 0.304688 375 Z M 0.304688 0 " clip-rule="nonzero"/></clipPath><clipPath id="0337787de1"><path d="M 187.152344 0 C 83.960938 0 0.304688 83.945312 0.304688 187.5 C 0.304688 291.054688 83.960938 375 187.152344 375 C 290.34375 375 374 291.054688 374 187.5 C 374 83.945312 290.34375 0 187.152344 0 Z M 187.152344 0 " clip-rule="nonzero"/></clipPath><clipPath id="6506601295"><rect x="0" width="374" y="0" height="375"/></clipPath><clipPath id="36394f72fa"><path d="M 57.992188 111.222656 L 318.242188 111.222656 L 318.242188 194.40625 L 57.992188 194.40625 Z M 57.992188 111.222656 " clip-rule="nonzero"/></clipPath><clipPath id="9ab7ac0841"><path d="M 296.191406 144.71875 C 294.734375 144.71875 293.5 145.683594 293.09375 147.007812 L 256.359375 147.007812 L 243.75 134.40625 L 228.535156 134.40625 L 219.402344 125.285156 L 207.0625 125.285156 L 207.0625 127.023438 L 218.683594 127.023438 L 227.8125 136.144531 L 243.03125 136.144531 L 255.640625 148.746094 L 293.054688 148.746094 C 293.40625 150.148438 294.675781 151.1875 296.191406 151.1875 C 297.976562 151.1875 299.429688 149.738281 299.429688 147.953125 C 299.429688 146.167969 297.976562 144.71875 296.191406 144.71875 Z M 108.492188 126.476562 C 110.597656 126.476562 112.390625 125.121094 113.042969 123.238281 L 116.722656 123.238281 L 125.851562 114.117188 L 143.492188 114.117188 L 150.738281 121.355469 L 169.171875 121.355469 L 174.851562 118.460938 L 151.9375 118.460938 L 144.691406 111.21875 L 124.652344 111.21875 L 115.523438 120.34375 L 113.121094 120.34375 C 112.546875 118.328125 110.691406 116.851562 108.492188 116.851562 C 105.832031 116.851562 103.675781 119.007812 103.675781 121.664062 C 103.675781 124.320312 105.832031 126.476562 108.492188 126.476562 Z M 225.496094 121.355469 L 232.742188 114.117188 L 250.378906 114.117188 L 259.507812 123.238281 L 263.191406 123.238281 C 263.84375 125.121094 265.632812 126.476562 267.742188 126.476562 C 270.402344 126.476562 272.554688 124.320312 272.554688 121.664062 C 272.554688 119.007812 270.402344 116.851562 267.742188 116.851562 C 265.539062 116.851562 263.683594 118.328125 263.109375 120.34375 L 260.707031 120.34375 L 251.578125 111.21875 L 231.539062 111.21875 L 224.296875 118.460938 L 198.929688 118.460938 L 207.0625 121.355469 Z M 61.226562 140.894531 C 62.691406 140.894531 63.929688 139.921875 64.328125 138.585938 L 114.746094 138.585938 L 124.453125 128.886719 L 146.988281 128.886719 L 146.988281 127.148438 L 123.734375 127.148438 L 114.023438 136.851562 L 64.359375 136.851562 C 64 135.457031 62.734375 134.429688 61.226562 134.429688 C 59.441406 134.429688 57.992188 135.875 57.992188 137.660156 C 57.992188 139.449219 59.441406 140.894531 61.226562 140.894531 Z M 150.738281 184.269531 L 143.492188 191.511719 L 125.851562 191.511719 L 116.722656 182.390625 L 113.042969 182.390625 C 112.390625 180.503906 110.597656 179.152344 108.492188 179.152344 C 105.832031 179.152344 103.675781 181.304688 103.675781 183.964844 C 103.675781 186.621094 105.832031 188.777344 108.492188 188.777344 C 110.691406 188.777344 112.546875 187.300781 113.121094 185.285156 L 115.523438 185.285156 L 124.652344 194.40625 L 144.691406 194.40625 L 151.9375 187.167969 L 179.464844 187.167969 L 169.171875 184.269531 Z M 315.003906 164.730469 C 313.539062 164.730469 312.304688 165.703125 311.902344 167.039062 L 261.488281 167.039062 L 251.777344 176.742188 L 229.242188 176.742188 L 229.242188 178.476562 L 252.496094 178.476562 L 262.207031 168.777344 L 311.871094 168.777344 C 312.230469 170.171875 313.496094 171.199219 315.003906 171.199219 C 316.792969 171.199219 318.242188 169.75 318.242188 167.964844 C 318.242188 166.179688 316.792969 164.730469 315.003906 164.730469 Z M 267.742188 179.152344 C 265.632812 179.152344 263.84375 180.503906 263.191406 182.390625 L 259.507812 182.390625 L 250.378906 191.511719 L 232.742188 191.511719 L 225.496094 184.269531 L 207.0625 184.269531 L 196.476562 187.167969 L 224.296875 187.167969 L 231.539062 194.40625 L 251.578125 194.40625 L 260.707031 185.285156 L 263.109375 185.285156 C 263.683594 187.300781 265.539062 188.777344 267.742188 188.777344 C 270.402344 188.777344 272.554688 186.621094 272.554688 183.964844 C 272.554688 181.304688 270.402344 179.152344 267.742188 179.152344 Z M 123.734375 178.476562 L 146.988281 178.476562 L 146.988281 176.742188 L 124.453125 176.742188 L 114.746094 167.039062 L 64.328125 167.039062 C 63.929688 165.703125 62.691406 164.730469 61.226562 164.730469 C 59.441406 164.730469 57.992188 166.179688 57.992188 167.964844 C 57.992188 169.75 59.441406 171.199219 61.226562 171.199219 C 62.734375 171.199219 64 170.171875 64.359375 168.777344 L 114.023438 168.777344 Z M 217.699219 171.171875 L 224.945312 163.929688 L 233.46875 163.929688 C 234.058594 165.882812 235.871094 167.304688 238.019531 167.304688 C 240.644531 167.304688 242.773438 165.179688 242.773438 162.554688 C 242.773438 159.933594 240.644531 157.804688 238.019531 157.804688 C 235.925781 157.804688 234.148438 159.15625 233.515625 161.035156 L 223.746094 161.035156 L 216.5 168.277344 L 215.535156 168.277344 C 214.96875 169.277344 214.351562 170.242188 213.679688 171.171875 Z M 216.5 137.351562 L 223.746094 144.59375 L 233.515625 144.59375 C 234.148438 146.46875 235.925781 147.820312 238.019531 147.820312 C 240.644531 147.820312 242.773438 145.695312 242.773438 143.070312 C 242.773438 140.449219 240.644531 138.320312 238.019531 138.320312 C 235.871094 138.320312 234.058594 139.742188 233.46875 141.695312 L 224.945312 141.695312 L 217.699219 134.457031 L 213.679688 134.457031 C 214.351562 135.386719 214.96875 136.351562 215.535156 137.351562 Z M 252.496094 127.148438 L 229.242188 127.148438 L 229.242188 128.886719 L 251.777344 128.886719 L 261.488281 138.585938 L 311.902344 138.585938 C 312.304688 139.921875 313.539062 140.894531 315.003906 140.894531 C 316.792969 140.894531 318.242188 139.449219 318.242188 137.660156 C 318.242188 135.875 316.792969 134.429688 315.003906 134.429688 C 313.496094 134.429688 312.230469 135.457031 311.871094 136.851562 L 262.207031 136.851562 Z M 138.214844 147.820312 C 140.304688 147.820312 142.082031 146.46875 142.71875 144.59375 L 152.488281 144.59375 L 159.734375 137.351562 L 160.695312 137.351562 C 161.261719 136.351562 161.882812 135.386719 162.550781 134.457031 L 158.53125 134.457031 L 151.285156 141.695312 L 142.765625 141.695312 C 142.171875 139.742188 140.359375 138.320312 138.214844 138.320312 C 135.585938 138.320312 133.457031 140.449219 133.457031 143.070312 C 133.457031 145.695312 135.585938 147.820312 138.214844 147.820312 Z M 169.171875 125.285156 L 156.828125 125.285156 L 147.699219 134.40625 L 132.480469 134.40625 L 119.871094 147.007812 L 83.136719 147.007812 C 82.730469 145.683594 81.5 144.71875 80.039062 144.71875 C 78.253906 144.71875 76.804688 146.167969 76.804688 147.953125 C 76.804688 149.738281 78.253906 151.1875 80.039062 151.1875 C 81.554688 151.1875 82.824219 150.148438 83.179688 148.746094 L 120.59375 148.746094 L 133.203125 136.144531 L 148.417969 136.144531 L 157.546875 127.023438 L 169.171875 127.023438 Z M 120.59375 156.882812 L 83.179688 156.882812 C 82.824219 155.480469 81.554688 154.441406 80.039062 154.441406 C 78.253906 154.441406 76.804688 155.890625 76.804688 157.675781 C 76.804688 159.460938 78.253906 160.910156 80.039062 160.910156 C 81.5 160.910156 82.730469 159.945312 83.136719 158.621094 L 119.871094 158.621094 L 132.480469 171.21875 L 147.699219 171.21875 L 156.828125 180.34375 L 169.171875 180.34375 L 169.171875 178.605469 L 157.546875 178.605469 L 148.417969 169.480469 L 133.203125 169.480469 Z M 207.0625 180.34375 L 219.402344 180.34375 L 228.535156 171.21875 L 243.75 171.21875 L 256.359375 158.621094 L 293.09375 158.621094 C 293.5 159.945312 294.734375 160.910156 296.191406 160.910156 C 297.976562 160.910156 299.429688 159.460938 299.429688 157.675781 C 299.429688 155.890625 297.976562 154.441406 296.191406 154.441406 C 294.675781 154.441406 293.40625 155.480469 293.054688 156.882812 L 255.640625 156.882812 L 243.03125 169.480469 L 227.8125 169.480469 L 218.683594 178.605469 L 207.0625 178.605469 Z M 138.214844 167.304688 C 140.359375 167.304688 142.171875 165.882812 142.765625 163.929688 L 151.285156 163.929688 L 158.53125 171.171875 L 162.550781 171.171875 C 161.882812 170.242188 161.261719 169.277344 160.695312 168.277344 L 159.734375 168.277344 L 152.488281 161.035156 L 142.71875 161.035156 C 142.082031 159.15625 140.304688 157.804688 138.214844 157.804688 C 135.585938 157.804688 133.457031 159.933594 133.457031 162.554688 C 133.457031 165.179688 135.585938 167.304688 138.214844 167.304688 Z M 138.214844 167.304688 " clip-rule="nonzero"/></clipPath><clipPath id="6f1a102910"><path d="M 296.191406 144.71875 C 294.734375 144.71875 293.5 145.683594 293.09375 147.007812 L 256.359375 147.007812 L 243.75 134.40625 L 228.535156 134.40625 L 219.402344 125.285156 L 207.0625 125.285156 L 207.0625 127.023438 L 218.683594 127.023438 L 227.8125 136.144531 L 243.03125 136.144531 L 255.640625 148.746094 L 293.054688 148.746094 C 293.40625 150.148438 294.675781 151.1875 296.191406 151.1875 C 297.976562 151.1875 299.425781 149.738281 299.425781 147.953125 C 299.425781 146.167969 297.976562 144.71875 296.191406 144.71875 Z M 108.492188 126.476562 C 110.597656 126.476562 112.390625 125.125 113.042969 123.238281 L 116.722656 123.238281 L 125.851562 114.117188 L 143.492188 114.117188 L 150.734375 121.355469 L 169.171875 121.355469 L 174.851562 118.460938 L 151.9375 118.460938 L 144.691406 111.222656 L 124.652344 111.222656 L 115.523438 120.34375 L 113.121094 120.34375 C 112.546875 118.328125 110.691406 116.851562 108.492188 116.851562 C 105.832031 116.851562 103.675781 119.007812 103.675781 121.664062 C 103.675781 124.320312 105.832031 126.476562 108.492188 126.476562 Z M 225.496094 121.355469 L 232.742188 114.117188 L 250.378906 114.117188 L 259.507812 123.238281 L 263.191406 123.238281 C 263.84375 125.125 265.632812 126.476562 267.742188 126.476562 C 270.402344 126.476562 272.554688 124.320312 272.554688 121.664062 C 272.554688 119.007812 270.402344 116.851562 267.742188 116.851562 C 265.539062 116.851562 263.683594 118.328125 263.109375 120.34375 L 260.707031 120.34375 L 251.578125 111.222656 L 231.539062 111.222656 L 224.296875 118.460938 L 198.929688 118.460938 L 207.0625 121.355469 Z M 61.226562 140.894531 C 62.691406 140.894531 63.929688 139.921875 64.328125 138.589844 L 114.746094 138.589844 L 124.453125 128.886719 L 146.988281 128.886719 L 146.988281 127.148438 L 123.734375 127.148438 L 114.023438 136.851562 L 64.359375 136.851562 C 64 135.457031 62.734375 134.429688 61.226562 134.429688 C 59.441406 134.429688 57.992188 135.875 57.992188 137.660156 C 57.992188 139.449219 59.441406 140.894531 61.226562 140.894531 Z M 150.734375 184.269531 L 143.492188 191.511719 L 125.851562 191.511719 L 116.722656 182.390625 L 113.042969 182.390625 C 112.390625 180.503906 110.597656 179.152344 108.492188 179.152344 C 105.832031 179.152344 103.675781 181.304688 103.675781 183.964844 C 103.675781 186.621094 105.832031 188.777344 108.492188 188.777344 C 110.691406 188.777344 112.546875 187.300781 113.121094 185.285156 L 115.523438 185.285156 L 124.652344 194.40625 L 144.691406 194.40625 L 151.9375 187.167969 L 179.464844 187.167969 L 169.171875 184.269531 Z M 315.003906 164.730469 C 313.539062 164.730469 312.300781 165.703125 311.902344 167.039062 L 261.488281 167.039062 L 251.777344 176.742188 L 229.242188 176.742188 L 229.242188 178.476562 L 252.496094 178.476562 L 262.207031 168.777344 L 311.871094 168.777344 C 312.230469 170.171875 313.496094 171.199219 315.003906 171.199219 C 316.789062 171.199219 318.242188 169.753906 318.242188 167.964844 C 318.242188 166.179688 316.789062 164.730469 315.003906 164.730469 Z M 267.742188 179.152344 C 265.632812 179.152344 263.84375 180.503906 263.191406 182.390625 L 259.507812 182.390625 L 250.378906 191.511719 L 232.742188 191.511719 L 225.496094 184.269531 L 207.0625 184.269531 L 196.476562 187.167969 L 224.296875 187.167969 L 231.539062 194.40625 L 251.578125 194.40625 L 260.707031 185.285156 L 263.109375 185.285156 C 263.683594 187.300781 265.539062 188.777344 267.742188 188.777344 C 270.402344 188.777344 272.554688 186.621094 272.554688 183.964844 C 272.554688 181.304688 270.402344 179.152344 267.742188 179.152344 Z M 123.734375 178.476562 L 146.988281 178.476562 L 146.988281 176.742188 L 124.453125 176.742188 L 114.746094 167.039062 L 64.328125 167.039062 C 63.929688 165.703125 62.691406 164.730469 61.226562 164.730469 C 59.441406 164.730469 57.992188 166.179688 57.992188 167.964844 C 57.992188 169.753906 59.441406 171.199219 61.226562 171.199219 C 62.734375 171.199219 64 170.171875 64.359375 168.777344 L 114.023438 168.777344 Z M 217.699219 171.171875 L 224.945312 163.929688 L 233.46875 163.929688 C 234.058594 165.882812 235.871094 167.304688 238.019531 167.304688 C 240.644531 167.304688 242.773438 165.179688 242.773438 162.554688 C 242.773438 159.933594 240.644531 157.804688 238.019531 157.804688 C 235.925781 157.804688 234.148438 159.15625 233.515625 161.035156 L 223.746094 161.035156 L 216.5 168.277344 L 215.535156 168.277344 C 214.96875 169.277344 214.347656 170.242188 213.679688 171.171875 Z M 216.5 137.351562 L 223.746094 144.59375 L 233.515625 144.59375 C 234.148438 146.46875 235.925781 147.820312 238.019531 147.820312 C 240.644531 147.820312 242.773438 145.695312 242.773438 143.070312 C 242.773438 140.449219 240.644531 138.320312 238.019531 138.320312 C 235.871094 138.320312 234.058594 139.742188 233.46875 141.695312 L 224.945312 141.695312 L 217.699219 134.457031 L 213.679688 134.457031 C 214.347656 135.386719 214.96875 136.351562 215.535156 137.351562 Z M 252.496094 127.148438 L 229.242188 127.148438 L 229.242188 128.886719 L 251.777344 128.886719 L 261.488281 138.589844 L 311.902344 138.589844 C 312.300781 139.921875 313.539062 140.894531 315.003906 140.894531 C 316.789062 140.894531 318.242188 139.449219 318.242188 137.660156 C 318.242188 135.875 316.789062 134.429688 315.003906 134.429688 C 313.496094 134.429688 312.230469 135.457031 311.871094 136.851562 L 262.207031 136.851562 Z M 138.214844 147.820312 C 140.304688 147.820312 142.082031 146.46875 142.714844 144.59375 L 152.488281 144.59375 L 159.734375 137.351562 L 160.695312 137.351562 C 161.261719 136.351562 161.882812 135.386719 162.550781 134.457031 L 158.53125 134.457031 L 151.285156 141.695312 L 142.765625 141.695312 C 142.171875 139.742188 140.359375 138.320312 138.214844 138.320312 C 135.585938 138.320312 133.457031 140.449219 133.457031 143.070312 C 133.457031 145.695312 135.585938 147.820312 138.214844 147.820312 Z M 169.171875 125.285156 L 156.828125 125.285156 L 147.699219 134.40625 L 132.480469 134.40625 L 119.871094 147.007812 L 83.136719 147.007812 C 82.730469 145.683594 81.5 144.71875 80.039062 144.71875 C 78.253906 144.71875 76.804688 146.167969 76.804688 147.953125 C 76.804688 149.738281 78.253906 151.1875 80.039062 151.1875 C 81.554688 151.1875 82.824219 150.148438 83.179688 148.746094 L 120.59375 148.746094 L 133.203125 136.144531 L 148.417969 136.144531 L 157.546875 127.023438 L 169.171875 127.023438 Z M 120.59375 156.882812 L 83.179688 156.882812 C 82.824219 155.480469 81.554688 154.441406 80.039062 154.441406 C 78.253906 154.441406 76.804688 155.890625 76.804688 157.675781 C 76.804688 159.460938 78.253906 160.910156 80.039062 160.910156 C 81.5 160.910156 82.730469 159.945312 83.136719 158.621094 L 119.871094 158.621094 L 132.480469 171.21875 L 147.699219 171.21875 L 156.828125 180.34375 L 169.171875 180.34375 L 169.171875 178.605469 L 157.546875 178.605469 L 148.417969 169.480469 L 133.203125 169.480469 Z M 207.0625 180.34375 L 219.402344 180.34375 L 228.535156 171.21875 L 243.75 171.21875 L 256.359375 158.621094 L 293.09375 158.621094 C 293.5 159.945312 294.734375 160.910156 296.191406 160.910156 C 297.976562 160.910156 299.425781 159.460938 299.425781 157.675781 C 299.425781 155.890625 297.976562 154.441406 296.191406 154.441406 C 294.675781 154.441406 293.40625 155.480469 293.054688 156.882812 L 255.640625 156.882812 L 243.03125 169.480469 L 227.8125 169.480469 L 218.683594 178.605469 L 207.0625 178.605469 Z M 138.214844 167.304688 C 140.359375 167.304688 142.171875 165.882812 142.765625 163.929688 L 151.285156 163.929688 L 158.53125 171.171875 L 162.550781 171.171875 C 161.882812 170.242188 161.261719 169.277344 160.695312 168.277344 L 159.734375 168.277344 L 152.488281 161.035156 L 142.714844 161.035156 C 142.082031 159.15625 140.304688 157.804688 138.214844 157.804688 C 135.585938 157.804688 133.457031 159.933594 133.457031 162.554688 C 133.457031 165.179688 135.585938 167.304688 138.214844 167.304688 " clip-rule="nonzero"/></clipPath><linearGradient x1="-0.00000000363454" gradientTransform="matrix(260.249994, 0, 0, 260.064054, 57.990962, 152.813396)" y1="0" x2="0.999998" gradientUnits="userSpaceOnUse" y2="0" id="732ba8eb00"><stop stop-opacity="1" stop-color="rgb(31.759644%, 67.83905%, 89.7995%)" offset="0"/><stop stop-opacity="1" stop-color="rgb(31.573486%, 67.652893%, 89.613342%)" offset="0.0078125"/><stop stop-opacity="1" stop-color="rgb(31.201172%, 67.282104%, 89.41803%)" offset="0.015625"/><stop stop-opacity="1" stop-color="rgb(30.99823%, 66.860962%, 89.213562%)" offset="0.0195313"/><stop stop-opacity="1" stop-color="rgb(30.979919%, 66.625977%, 89.019775%)" offset="0.0234375"/><stop stop-opacity="1" stop-color="rgb(30.979919%, 66.252136%, 88.824463%)" offset="0.0273438"/><stop stop-opacity="1" stop-color="rgb(30.979919%, 65.879822%, 88.62915%)" offset="0.03125"/><stop stop-opacity="1" stop-color="rgb(30.784607%, 65.684509%, 88.433838%)" offset="0.0390625"/><stop stop-opacity="1" stop-color="rgb(30.589294%, 65.299988%, 88.044739%)" offset="0.046875"/><stop stop-opacity="1" stop-color="rgb(30.589294%, 64.924622%, 87.844849%)" offset="0.0546875"/><stop stop-opacity="1" stop-color="rgb(30.589294%, 64.549255%, 87.643433%)" offset="0.0625"/><stop stop-opacity="1" stop-color="rgb(30.378723%, 64.123535%, 87.254333%)" offset="0.0664062"/><stop stop-opacity="1" stop-color="rgb(30.168152%, 63.88855%, 87.059021%)" offset="0.0703125"/><stop stop-opacity="1" stop-color="rgb(29.983521%, 63.702393%, 87.052917%)" offset="0.078125"/><stop stop-opacity="1" stop-color="rgb(29.798889%, 63.136292%, 86.857605%)" offset="0.0820312"/><stop stop-opacity="1" stop-color="rgb(29.798889%, 62.754822%, 86.669922%)" offset="0.0859375"/><stop stop-opacity="1" stop-color="rgb(29.798889%, 62.564087%, 86.482239%)" offset="0.09375"/><stop stop-opacity="1" stop-color="rgb(29.603577%, 62.188721%, 86.280823%)" offset="0.101563"/><stop stop-opacity="1" stop-color="rgb(29.40979%, 61.785889%, 86.073303%)" offset="0.105469"/><stop stop-opacity="1" stop-color="rgb(29.40979%, 61.569214%, 85.879517%)" offset="0.109375"/><stop stop-opacity="1" stop-color="rgb(29.400635%, 61.373901%, 85.684204%)" offset="0.117188"/><stop stop-opacity="1" stop-color="rgb(29.205322%, 60.978699%, 85.293579%)" offset="0.121094"/><stop stop-opacity="1" stop-color="rgb(29.019165%, 60.778809%, 85.099792%)" offset="0.125"/><stop stop-opacity="1" stop-color="rgb(29.019165%, 60.592651%, 85.099792%)" offset="0.132812"/><stop stop-opacity="1" stop-color="rgb(29.019165%, 60.203552%, 84.90448%)" offset="0.136719"/><stop stop-opacity="1" stop-color="rgb(29.019165%, 59.999084%, 84.709167%)" offset="0.140625"/><stop stop-opacity="1" stop-color="rgb(28.823853%, 59.78241%, 84.509277%)" offset="0.144531"/><stop stop-opacity="1" stop-color="rgb(28.62854%, 59.567261%, 84.309387%)" offset="0.148438"/><stop stop-opacity="1" stop-color="rgb(28.433228%, 59.19342%, 84.29718%)" offset="0.152344"/><stop stop-opacity="1" stop-color="rgb(28.239441%, 58.81958%, 84.284973%)" offset="0.15625"/><stop stop-opacity="1" stop-color="rgb(28.239441%, 58.624268%, 84.101868%)" offset="0.164062"/><stop stop-opacity="1" stop-color="rgb(28.239441%, 58.239746%, 83.729553%)" offset="0.171875"/><stop stop-opacity="1" stop-color="rgb(28.239441%, 57.865906%, 83.535767%)" offset="0.179688"/><stop stop-opacity="1" stop-color="rgb(28.039551%, 57.489014%, 83.334351%)" offset="0.183594"/><stop stop-opacity="1" stop-color="rgb(27.839661%, 57.299805%, 83.139038%)" offset="0.1875"/><stop stop-opacity="1" stop-color="rgb(27.839661%, 57.078552%, 82.943726%)" offset="0.191406"/><stop stop-opacity="1" stop-color="rgb(27.839661%, 56.858826%, 82.749939%)" offset="0.195313"/><stop stop-opacity="1" stop-color="rgb(27.839661%, 56.663513%, 82.74231%)" offset="0.203125"/><stop stop-opacity="1" stop-color="rgb(27.6474%, 56.277466%, 82.542419%)" offset="0.210938"/><stop stop-opacity="1" stop-color="rgb(27.452087%, 55.886841%, 82.15332%)" offset="0.214844"/><stop stop-opacity="1" stop-color="rgb(27.449036%, 55.688477%, 81.959534%)" offset="0.21875"/><stop stop-opacity="1" stop-color="rgb(27.449036%, 55.488586%, 81.785583%)" offset="0.222656"/><stop stop-opacity="1" stop-color="rgb(27.449036%, 55.288696%, 81.611633%)" offset="0.226563"/><stop stop-opacity="1" stop-color="rgb(27.253723%, 55.075073%, 81.57196%)" offset="0.230469"/><stop stop-opacity="1" stop-color="rgb(27.059937%, 54.862976%, 81.532288%)" offset="0.234375"/><stop stop-opacity="1" stop-color="rgb(27.050781%, 54.676819%, 81.355286%)" offset="0.242188"/><stop stop-opacity="1" stop-color="rgb(26.855469%, 54.304504%, 81.17981%)" offset="0.25"/><stop stop-opacity="1" stop-color="rgb(26.669312%, 53.924561%, 80.978394%)" offset="0.253906"/><stop stop-opacity="1" stop-color="rgb(26.669312%, 53.729248%, 80.778503%)" offset="0.257812"/><stop stop-opacity="1" stop-color="rgb(26.669312%, 53.529358%, 80.601501%)" offset="0.261719"/><stop stop-opacity="1" stop-color="rgb(26.669312%, 53.329468%, 80.426025%)" offset="0.265625"/><stop stop-opacity="1" stop-color="rgb(26.646423%, 53.112793%, 80.386353%)" offset="0.269531"/><stop stop-opacity="1" stop-color="rgb(26.625061%, 52.896118%, 80.34668%)" offset="0.273438"/><stop stop-opacity="1" stop-color="rgb(26.446533%, 52.526855%, 80.160522%)" offset="0.277344"/><stop stop-opacity="1" stop-color="rgb(26.269531%, 52.159119%, 79.974365%)" offset="0.28125"/><stop stop-opacity="1" stop-color="rgb(26.269531%, 51.959229%, 79.788208%)" offset="0.285156"/><stop stop-opacity="1" stop-color="rgb(26.269531%, 51.759338%, 79.603577%)" offset="0.289062"/><stop stop-opacity="1" stop-color="rgb(26.080322%, 51.570129%, 79.411316%)" offset="0.296875"/><stop stop-opacity="1" stop-color="rgb(25.88501%, 51.194763%, 79.219055%)" offset="0.304688"/><stop stop-opacity="1" stop-color="rgb(25.708008%, 50.823975%, 79.019165%)" offset="0.308594"/><stop stop-opacity="1" stop-color="rgb(25.538635%, 50.637817%, 78.819275%)" offset="0.3125"/><stop stop-opacity="1" stop-color="rgb(25.514221%, 50.418091%, 78.623962%)" offset="0.316406"/><stop stop-opacity="1" stop-color="rgb(25.489807%, 50.19989%, 78.42865%)" offset="0.320313"/><stop stop-opacity="1" stop-color="rgb(25.489807%, 50.192261%, 78.42865%)" offset="0.328125"/><stop stop-opacity="1" stop-color="rgb(25.489807%, 49.992371%, 78.236389%)" offset="0.335938"/><stop stop-opacity="1" stop-color="rgb(25.306702%, 49.603271%, 78.042603%)" offset="0.34375"/><stop stop-opacity="1" stop-color="rgb(25.111389%, 49.214172%, 77.844238%)" offset="0.351563"/><stop stop-opacity="1" stop-color="rgb(25.099182%, 48.805237%, 77.449036%)" offset="0.355469"/><stop stop-opacity="1" stop-color="rgb(25.099182%, 48.59314%, 77.249146%)" offset="0.359375"/><stop stop-opacity="1" stop-color="rgb(25.090027%, 48.216248%, 77.053833%)" offset="0.363281"/><stop stop-opacity="1" stop-color="rgb(25.080872%, 47.839355%, 76.858521%)" offset="0.367188"/><stop stop-opacity="1" stop-color="rgb(24.894714%, 47.644043%, 76.858521%)" offset="0.375"/><stop stop-opacity="1" stop-color="rgb(24.517822%, 47.44873%, 76.663208%)" offset="0.382813"/><stop stop-opacity="1" stop-color="rgb(24.317932%, 47.253418%, 76.292419%)" offset="0.390625"/><stop stop-opacity="1" stop-color="rgb(24.308777%, 46.842957%, 76.097107%)" offset="0.394531"/><stop stop-opacity="1" stop-color="rgb(24.308777%, 46.626282%, 76.078796%)" offset="0.398438"/><stop stop-opacity="1" stop-color="rgb(24.308777%, 46.435547%, 75.883484%)" offset="0.40625"/><stop stop-opacity="1" stop-color="rgb(24.305725%, 46.058655%, 75.686646%)" offset="0.414062"/><stop stop-opacity="1" stop-color="rgb(24.110413%, 45.680237%, 75.486755%)" offset="0.417969"/><stop stop-opacity="1" stop-color="rgb(23.919678%, 45.489502%, 75.289917%)" offset="0.421875"/><stop stop-opacity="1" stop-color="rgb(23.919678%, 45.294189%, 75.109863%)" offset="0.429688"/><stop stop-opacity="1" stop-color="rgb(23.919678%, 44.903564%, 74.743652%)" offset="0.4375"/><stop stop-opacity="1" stop-color="rgb(23.904419%, 44.494629%, 74.517822%)" offset="0.441406"/><stop stop-opacity="1" stop-color="rgb(23.88916%, 44.27948%, 74.478149%)" offset="0.445312"/><stop stop-opacity="1" stop-color="rgb(23.709106%, 44.093323%, 74.298096%)" offset="0.453125"/><stop stop-opacity="1" stop-color="rgb(23.336792%, 43.717957%, 73.927307%)" offset="0.460938"/><stop stop-opacity="1" stop-color="rgb(23.143005%, 43.345642%, 73.731995%)" offset="0.46875"/><stop stop-opacity="1" stop-color="rgb(23.139954%, 42.977905%, 73.550415%)" offset="0.476563"/><stop stop-opacity="1" stop-color="rgb(23.139954%, 42.570496%, 73.332214%)" offset="0.480469"/><stop stop-opacity="1" stop-color="rgb(23.139954%, 42.349243%, 73.292542%)" offset="0.484375"/><stop stop-opacity="1" stop-color="rgb(23.139954%, 42.153931%, 73.11554%)" offset="0.492188"/><stop stop-opacity="1" stop-color="rgb(23.139954%, 41.763306%, 72.743225%)" offset="0.5"/><stop stop-opacity="1" stop-color="rgb(22.944641%, 41.383362%, 72.549438%)" offset="0.507813"/><stop stop-opacity="1" stop-color="rgb(22.749329%, 41.00647%, 72.354126%)" offset="0.515625"/><stop stop-opacity="1" stop-color="rgb(22.549438%, 40.776062%, 71.958923%)" offset="0.519531"/><stop stop-opacity="1" stop-color="rgb(22.349548%, 40.736389%, 71.759033%)" offset="0.523438"/><stop stop-opacity="1" stop-color="rgb(22.349548%, 40.550232%, 71.746826%)" offset="0.53125"/><stop stop-opacity="1" stop-color="rgb(22.349548%, 40.179443%, 71.551514%)" offset="0.539063"/><stop stop-opacity="1" stop-color="rgb(22.349548%, 39.801025%, 71.180725%)" offset="0.546875"/><stop stop-opacity="1" stop-color="rgb(22.154236%, 39.413452%, 70.985413%)" offset="0.554688"/><stop stop-opacity="1" stop-color="rgb(21.958923%, 39.019775%, 70.783997%)" offset="0.558594"/><stop stop-opacity="1" stop-color="rgb(21.958923%, 38.819885%, 70.588684%)" offset="0.5625"/><stop stop-opacity="1" stop-color="rgb(21.958923%, 38.624573%, 70.573425%)" offset="0.570313"/><stop stop-opacity="1" stop-color="rgb(21.958923%, 38.233948%, 70.378113%)" offset="0.578125"/><stop stop-opacity="1" stop-color="rgb(21.958923%, 37.846375%, 70.002747%)" offset="0.582031"/><stop stop-opacity="1" stop-color="rgb(21.958923%, 37.65564%, 69.805908%)" offset="0.585938"/><stop stop-opacity="1" stop-color="rgb(21.763611%, 37.652588%, 69.802856%)" offset="0.59375"/><stop stop-opacity="1" stop-color="rgb(21.395874%, 37.449646%, 69.604492%)" offset="0.597656"/><stop stop-opacity="1" stop-color="rgb(21.221924%, 37.249756%, 69.40918%)" offset="0.601563"/><stop stop-opacity="1" stop-color="rgb(21.200562%, 37.036133%, 69.213867%)" offset="0.605469"/><stop stop-opacity="1" stop-color="rgb(21.179199%, 36.82251%, 69.018555%)" offset="0.609375"/><stop stop-opacity="1" stop-color="rgb(21.179199%, 36.636353%, 68.823242%)" offset="0.617188"/><stop stop-opacity="1" stop-color="rgb(21.179199%, 36.265564%, 68.629456%)" offset="0.625"/><stop stop-opacity="1" stop-color="rgb(21.179199%, 35.89325%, 68.443298%)" offset="0.632813"/><stop stop-opacity="1" stop-color="rgb(21.179199%, 35.516357%, 68.247986%)" offset="0.640625"/><stop stop-opacity="1" stop-color="rgb(20.979309%, 35.28595%, 68.03894%)" offset="0.644531"/><stop stop-opacity="1" stop-color="rgb(20.779419%, 35.246277%, 67.83905%)" offset="0.648438"/><stop stop-opacity="1" stop-color="rgb(20.779419%, 35.06012%, 67.826843%)" offset="0.65625"/><stop stop-opacity="1" stop-color="rgb(20.779419%, 34.692383%, 67.631531%)" offset="0.664062"/><stop stop-opacity="1" stop-color="rgb(20.779419%, 34.320068%, 67.449951%)" offset="0.671875"/><stop stop-opacity="1" stop-color="rgb(20.584106%, 33.944702%, 67.254639%)" offset="0.679688"/><stop stop-opacity="1" stop-color="rgb(20.388794%, 33.744812%, 66.864014%)" offset="0.6875"/><stop stop-opacity="1" stop-color="rgb(20.388794%, 33.514404%, 66.468811%)" offset="0.691406"/><stop stop-opacity="1" stop-color="rgb(20.388794%, 33.299255%, 66.268921%)" offset="0.695312"/><stop stop-opacity="1" stop-color="rgb(20.38269%, 33.113098%, 66.262817%)" offset="0.703125"/><stop stop-opacity="1" stop-color="rgb(20.187378%, 32.737732%, 66.067505%)" offset="0.710938"/><stop stop-opacity="1" stop-color="rgb(19.999695%, 32.365417%, 65.879822%)" offset="0.71875"/><stop stop-opacity="1" stop-color="rgb(19.999695%, 31.993103%, 65.684509%)" offset="0.726562"/><stop stop-opacity="1" stop-color="rgb(19.981384%, 31.762695%, 65.293884%)" offset="0.734375"/><stop stop-opacity="1" stop-color="rgb(19.786072%, 31.536865%, 65.089417%)" offset="0.742188"/><stop stop-opacity="1" stop-color="rgb(19.60907%, 31.164551%, 64.89563%)" offset="0.75"/><stop stop-opacity="1" stop-color="rgb(19.60907%, 30.793762%, 64.518738%)" offset="0.757812"/><stop stop-opacity="1" stop-color="rgb(19.60907%, 30.421448%, 64.318848%)" offset="0.765625"/><stop stop-opacity="1" stop-color="rgb(19.587708%, 30.01709%, 64.11438%)" offset="0.769531"/><stop stop-opacity="1" stop-color="rgb(19.566345%, 29.798889%, 63.919067%)" offset="0.773438"/><stop stop-opacity="1" stop-color="rgb(19.392395%, 29.786682%, 63.90686%)" offset="0.78125"/><stop stop-opacity="1" stop-color="rgb(19.219971%, 29.59137%, 63.711548%)" offset="0.789062"/><stop stop-opacity="1" stop-color="rgb(19.219971%, 29.220581%, 63.529968%)" offset="0.796875"/><stop stop-opacity="1" stop-color="rgb(19.219971%, 29.025269%, 63.334656%)" offset="0.804688"/><stop stop-opacity="1" stop-color="rgb(19.219971%, 28.823853%, 62.968445%)" offset="0.8125"/><stop stop-opacity="1" stop-color="rgb(19.018555%, 28.417969%, 62.757874%)" offset="0.816406"/><stop stop-opacity="1" stop-color="rgb(18.818665%, 28.208923%, 62.718201%)" offset="0.820312"/><stop stop-opacity="1" stop-color="rgb(18.818665%, 28.024292%, 62.527466%)" offset="0.828125"/><stop stop-opacity="1" stop-color="rgb(18.818665%, 27.644348%, 62.147522%)" offset="0.84375"/><stop stop-opacity="1" stop-color="rgb(18.644714%, 27.253723%, 61.764526%)" offset="0.851563"/><stop stop-opacity="1" stop-color="rgb(18.450928%, 26.864624%, 61.550903%)" offset="0.859375"/><stop stop-opacity="1" stop-color="rgb(18.429565%, 26.660156%, 61.355591%)" offset="0.867188"/><stop stop-opacity="1" stop-color="rgb(18.429565%, 26.460266%, 61.178589%)" offset="0.875"/><stop stop-opacity="1" stop-color="rgb(18.429565%, 26.074219%, 60.978699%)" offset="0.878906"/><stop stop-opacity="1" stop-color="rgb(18.429565%, 25.878906%, 60.778809%)" offset="0.882813"/><stop stop-opacity="1" stop-color="rgb(18.429565%, 25.683594%, 60.601807%)" offset="0.890625"/><stop stop-opacity="1" stop-color="rgb(18.234253%, 25.294495%, 60.386658%)" offset="0.898438"/><stop stop-opacity="1" stop-color="rgb(18.03894%, 25.086975%, 60.173035%)" offset="0.90625"/><stop stop-opacity="1" stop-color="rgb(18.03894%, 24.891663%, 59.803772%)" offset="0.914063"/><stop stop-opacity="1" stop-color="rgb(18.03894%, 24.514771%, 59.609985%)" offset="0.921875"/><stop stop-opacity="1" stop-color="rgb(18.03894%, 24.31488%, 59.429932%)" offset="0.929688"/><stop stop-opacity="1" stop-color="rgb(17.868042%, 24.113464%, 59.234619%)" offset="0.9375"/><stop stop-opacity="1" stop-color="rgb(17.674255%, 23.724365%, 59.01947%)" offset="0.941406"/><stop stop-opacity="1" stop-color="rgb(17.649841%, 23.529053%, 58.81958%)" offset="0.945313"/><stop stop-opacity="1" stop-color="rgb(17.649841%, 23.33374%, 58.624268%)" offset="0.953125"/><stop stop-opacity="1" stop-color="rgb(17.462158%, 22.944641%, 58.24585%)" offset="0.96875"/><stop stop-opacity="1" stop-color="rgb(17.260742%, 22.570801%, 58.052063%)" offset="0.976563"/><stop stop-opacity="1" stop-color="rgb(17.248535%, 22.370911%, 57.844543%)" offset="0.984375"/><stop stop-opacity="1" stop-color="rgb(17.248535%, 22.154236%, 57.640076%)" offset="0.992188"/><stop stop-opacity="1" stop-color="rgb(17.248535%, 21.958923%, 57.440186%)" offset="1"/></linearGradient><clipPath id="5fd473eab0"><path d="M 150.574219 115.300781 L 225.65625 115.300781 L 225.65625 190.328125 L 150.574219 190.328125 Z M 150.574219 115.300781 " clip-rule="nonzero"/></clipPath><clipPath id="d3424214ae"><path d="M 188.117188 180.523438 C 172.800781 180.523438 160.386719 168.117188 160.386719 152.8125 C 160.386719 137.511719 172.800781 125.101562 188.117188 125.101562 C 203.429688 125.101562 215.84375 137.511719 215.84375 152.8125 C 215.84375 168.117188 203.429688 180.523438 188.117188 180.523438 Z M 188.117188 115.300781 C 167.382812 115.300781 150.574219 132.097656 150.574219 152.8125 C 150.574219 173.53125 167.382812 190.328125 188.117188 190.328125 C 208.847656 190.328125 225.65625 173.53125 225.65625 152.8125 C 225.65625 132.097656 208.847656 115.300781 188.117188 115.300781 Z M 188.117188 115.300781 " clip-rule="nonzero"/></clipPath><clipPath id="f62da73065"><path d="M 188.117188 180.523438 C 172.800781 180.523438 160.386719 168.117188 160.386719 152.8125 C 160.386719 137.511719 172.800781 125.101562 188.117188 125.101562 C 203.429688 125.101562 215.84375 137.511719 215.84375 152.8125 C 215.84375 168.117188 203.429688 180.523438 188.117188 180.523438 Z M 188.117188 115.300781 C 167.382812 115.300781 150.574219 132.097656 150.574219 152.8125 C 150.574219 173.53125 167.382812 190.328125 188.117188 190.328125 C 208.847656 190.328125 225.65625 173.53125 225.65625 152.8125 C 225.65625 132.097656 208.847656 115.300781 188.117188 115.300781 " clip-rule="nonzero"/></clipPath><linearGradient x1="0.0000012673" gradientTransform="matrix(75.080755, 0, 0, 75.027113, 150.575593, 152.813396)" y1="0" x2="0.999991" gradientUnits="userSpaceOnUse" y2="0" id="5dd9b0846a"><stop stop-opacity="1" stop-color="rgb(31.759644%, 67.83905%, 89.7995%)" offset="0"/><stop stop-opacity="1" stop-color="rgb(31.573486%, 67.652893%, 89.613342%)" offset="0.0078125"/><stop stop-opacity="1" stop-color="rgb(31.201172%, 67.280579%, 89.41803%)" offset="0.015625"/><stop stop-opacity="1" stop-color="rgb(30.996704%, 66.860962%, 89.213562%)" offset="0.0195312"/><stop stop-opacity="1" stop-color="rgb(30.979919%, 66.625977%, 89.019775%)" offset="0.0234375"/><stop stop-opacity="1" stop-color="rgb(30.979919%, 66.252136%, 88.824463%)" offset="0.0273438"/><stop stop-opacity="1" stop-color="rgb(30.979919%, 65.879822%, 88.62915%)" offset="0.03125"/><stop stop-opacity="1" stop-color="rgb(30.784607%, 65.684509%, 88.433838%)" offset="0.0390625"/><stop stop-opacity="1" stop-color="rgb(30.589294%, 65.299988%, 88.044739%)" offset="0.046875"/><stop stop-opacity="1" stop-color="rgb(30.589294%, 64.924622%, 87.844849%)" offset="0.0546875"/><stop stop-opacity="1" stop-color="rgb(30.589294%, 64.549255%, 87.643433%)" offset="0.0625"/><stop stop-opacity="1" stop-color="rgb(30.378723%, 64.123535%, 87.254333%)" offset="0.0664062"/><stop stop-opacity="1" stop-color="rgb(30.168152%, 63.88855%, 87.059021%)" offset="0.0703125"/><stop stop-opacity="1" stop-color="rgb(29.983521%, 63.702393%, 87.052917%)" offset="0.078125"/><stop stop-opacity="1" stop-color="rgb(29.798889%, 63.136292%, 86.857605%)" offset="0.0820312"/><stop stop-opacity="1" stop-color="rgb(29.798889%, 62.754822%, 86.669922%)" offset="0.0859375"/><stop stop-opacity="1" stop-color="rgb(29.798889%, 62.564087%, 86.482239%)" offset="0.09375"/><stop stop-opacity="1" stop-color="rgb(29.603577%, 62.188721%, 86.280823%)" offset="0.101563"/><stop stop-opacity="1" stop-color="rgb(29.40979%, 61.785889%, 86.073303%)" offset="0.105469"/><stop stop-opacity="1" stop-color="rgb(29.40979%, 61.569214%, 85.879517%)" offset="0.109375"/><stop stop-opacity="1" stop-color="rgb(29.400635%, 61.373901%, 85.684204%)" offset="0.117188"/><stop stop-opacity="1" stop-color="rgb(29.205322%, 60.978699%, 85.293579%)" offset="0.121094"/><stop stop-opacity="1" stop-color="rgb(29.019165%, 60.778809%, 85.099792%)" offset="0.125"/><stop stop-opacity="1" stop-color="rgb(29.019165%, 60.592651%, 85.099792%)" offset="0.132812"/><stop stop-opacity="1" stop-color="rgb(29.019165%, 60.203552%, 84.90448%)" offset="0.136719"/><stop stop-opacity="1" stop-color="rgb(29.019165%, 59.999084%, 84.709167%)" offset="0.140625"/><stop stop-opacity="1" stop-color="rgb(28.823853%, 59.78241%, 84.509277%)" offset="0.144531"/><stop stop-opacity="1" stop-color="rgb(28.62854%, 59.567261%, 84.309387%)" offset="0.148438"/><stop stop-opacity="1" stop-color="rgb(28.433228%, 59.19342%, 84.29718%)" offset="0.152344"/><stop stop-opacity="1" stop-color="rgb(28.239441%, 58.81958%, 84.284973%)" offset="0.15625"/><stop stop-opacity="1" stop-color="rgb(28.239441%, 58.624268%, 84.101868%)" offset="0.164062"/><stop stop-opacity="1" stop-color="rgb(28.239441%, 58.239746%, 83.729553%)" offset="0.171875"/><stop stop-opacity="1" stop-color="rgb(28.239441%, 57.865906%, 83.535767%)" offset="0.179687"/><stop stop-opacity="1" stop-color="rgb(28.039551%, 57.489014%, 83.334351%)" offset="0.183594"/><stop stop-opacity="1" stop-color="rgb(27.839661%, 57.299805%, 83.139038%)" offset="0.1875"/><stop stop-opacity="1" stop-color="rgb(27.839661%, 57.078552%, 82.943726%)" offset="0.191406"/><stop stop-opacity="1" stop-color="rgb(27.839661%, 56.858826%, 82.749939%)" offset="0.195313"/><stop stop-opacity="1" stop-color="rgb(27.839661%, 56.663513%, 82.74231%)" offset="0.203125"/><stop stop-opacity="1" stop-color="rgb(27.6474%, 56.277466%, 82.542419%)" offset="0.210938"/><stop stop-opacity="1" stop-color="rgb(27.452087%, 55.886841%, 82.15332%)" offset="0.214844"/><stop stop-opacity="1" stop-color="rgb(27.449036%, 55.688477%, 81.959534%)" offset="0.21875"/><stop stop-opacity="1" stop-color="rgb(27.449036%, 55.488586%, 81.785583%)" offset="0.222656"/><stop stop-opacity="1" stop-color="rgb(27.449036%, 55.288696%, 81.611633%)" offset="0.226562"/><stop stop-opacity="1" stop-color="rgb(27.253723%, 55.075073%, 81.57196%)" offset="0.230469"/><stop stop-opacity="1" stop-color="rgb(27.059937%, 54.862976%, 81.532288%)" offset="0.234375"/><stop stop-opacity="1" stop-color="rgb(27.050781%, 54.676819%, 81.355286%)" offset="0.242188"/><stop stop-opacity="1" stop-color="rgb(26.855469%, 54.304504%, 81.17981%)" offset="0.25"/><stop stop-opacity="1" stop-color="rgb(26.669312%, 53.924561%, 80.978394%)" offset="0.253906"/><stop stop-opacity="1" stop-color="rgb(26.669312%, 53.729248%, 80.778503%)" offset="0.257812"/><stop stop-opacity="1" stop-color="rgb(26.669312%, 53.529358%, 80.601501%)" offset="0.261719"/><stop stop-opacity="1" stop-color="rgb(26.669312%, 53.329468%, 80.426025%)" offset="0.265625"/><stop stop-opacity="1" stop-color="rgb(26.646423%, 53.112793%, 80.386353%)" offset="0.269531"/><stop stop-opacity="1" stop-color="rgb(26.625061%, 52.896118%, 80.34668%)" offset="0.273438"/><stop stop-opacity="1" stop-color="rgb(26.446533%, 52.526855%, 80.160522%)" offset="0.277344"/><stop stop-opacity="1" stop-color="rgb(26.269531%, 52.159119%, 79.974365%)" offset="0.28125"/><stop stop-opacity="1" stop-color="rgb(26.269531%, 51.959229%, 79.788208%)" offset="0.285156"/><stop stop-opacity="1" stop-color="rgb(26.269531%, 51.759338%, 79.603577%)" offset="0.289062"/><stop stop-opacity="1" stop-color="rgb(26.080322%, 51.570129%, 79.411316%)" offset="0.296875"/><stop stop-opacity="1" stop-color="rgb(25.88501%, 51.194763%, 79.219055%)" offset="0.304688"/><stop stop-opacity="1" stop-color="rgb(25.708008%, 50.823975%, 79.019165%)" offset="0.308594"/><stop stop-opacity="1" stop-color="rgb(25.538635%, 50.637817%, 78.819275%)" offset="0.3125"/><stop stop-opacity="1" stop-color="rgb(25.514221%, 50.418091%, 78.623962%)" offset="0.316406"/><stop stop-opacity="1" stop-color="rgb(25.489807%, 50.19989%, 78.42865%)" offset="0.320312"/><stop stop-opacity="1" stop-color="rgb(25.489807%, 50.193787%, 78.42865%)" offset="0.328125"/><stop stop-opacity="1" stop-color="rgb(25.489807%, 49.992371%, 78.236389%)" offset="0.335937"/><stop stop-opacity="1" stop-color="rgb(25.306702%, 49.603271%, 78.042603%)" offset="0.34375"/><stop stop-opacity="1" stop-color="rgb(25.111389%, 49.214172%, 77.844238%)" offset="0.351562"/><stop stop-opacity="1" stop-color="rgb(25.099182%, 48.805237%, 77.449036%)" offset="0.355469"/><stop stop-opacity="1" stop-color="rgb(25.099182%, 48.59314%, 77.249146%)" offset="0.359375"/><stop stop-opacity="1" stop-color="rgb(25.090027%, 48.216248%, 77.053833%)" offset="0.363281"/><stop stop-opacity="1" stop-color="rgb(25.080872%, 47.839355%, 76.858521%)" offset="0.367188"/><stop stop-opacity="1" stop-color="rgb(24.894714%, 47.644043%, 76.858521%)" offset="0.375"/><stop stop-opacity="1" stop-color="rgb(24.517822%, 47.44873%, 76.663208%)" offset="0.382812"/><stop stop-opacity="1" stop-color="rgb(24.317932%, 47.253418%, 76.292419%)" offset="0.390625"/><stop stop-opacity="1" stop-color="rgb(24.308777%, 46.842957%, 76.097107%)" offset="0.394531"/><stop stop-opacity="1" stop-color="rgb(24.308777%, 46.626282%, 76.078796%)" offset="0.398438"/><stop stop-opacity="1" stop-color="rgb(24.308777%, 46.435547%, 75.883484%)" offset="0.40625"/><stop stop-opacity="1" stop-color="rgb(24.305725%, 46.058655%, 75.686646%)" offset="0.414063"/><stop stop-opacity="1" stop-color="rgb(24.110413%, 45.681763%, 75.486755%)" offset="0.417969"/><stop stop-opacity="1" stop-color="rgb(23.919678%, 45.489502%, 75.289917%)" offset="0.421875"/><stop stop-opacity="1" stop-color="rgb(23.919678%, 45.294189%, 75.109863%)" offset="0.429688"/><stop stop-opacity="1" stop-color="rgb(23.919678%, 44.903564%, 74.743652%)" offset="0.4375"/><stop stop-opacity="1" stop-color="rgb(23.904419%, 44.494629%, 74.519348%)" offset="0.441406"/><stop stop-opacity="1" stop-color="rgb(23.88916%, 44.27948%, 74.479675%)" offset="0.445312"/><stop stop-opacity="1" stop-color="rgb(23.709106%, 44.093323%, 74.299622%)" offset="0.453125"/><stop stop-opacity="1" stop-color="rgb(23.336792%, 43.717957%, 73.927307%)" offset="0.460938"/><stop stop-opacity="1" stop-color="rgb(23.143005%, 43.345642%, 73.731995%)" offset="0.46875"/><stop stop-opacity="1" stop-color="rgb(23.139954%, 42.977905%, 73.550415%)" offset="0.476562"/><stop stop-opacity="1" stop-color="rgb(23.139954%, 42.570496%, 73.332214%)" offset="0.480469"/><stop stop-opacity="1" stop-color="rgb(23.139954%, 42.349243%, 73.292542%)" offset="0.484375"/><stop stop-opacity="1" stop-color="rgb(23.139954%, 42.153931%, 73.11554%)" offset="0.492188"/><stop stop-opacity="1" stop-color="rgb(23.139954%, 41.763306%, 72.743225%)" offset="0.5"/><stop stop-opacity="1" stop-color="rgb(22.944641%, 41.383362%, 72.549438%)" offset="0.507812"/><stop stop-opacity="1" stop-color="rgb(22.749329%, 41.00647%, 72.354126%)" offset="0.515625"/><stop stop-opacity="1" stop-color="rgb(22.549438%, 40.776062%, 71.958923%)" offset="0.519531"/><stop stop-opacity="1" stop-color="rgb(22.349548%, 40.736389%, 71.759033%)" offset="0.523437"/><stop stop-opacity="1" stop-color="rgb(22.349548%, 40.550232%, 71.746826%)" offset="0.53125"/><stop stop-opacity="1" stop-color="rgb(22.349548%, 40.179443%, 71.551514%)" offset="0.539062"/><stop stop-opacity="1" stop-color="rgb(22.349548%, 39.801025%, 71.180725%)" offset="0.546875"/><stop stop-opacity="1" stop-color="rgb(22.154236%, 39.413452%, 70.985413%)" offset="0.554687"/><stop stop-opacity="1" stop-color="rgb(21.958923%, 39.019775%, 70.783997%)" offset="0.558594"/><stop stop-opacity="1" stop-color="rgb(21.958923%, 38.819885%, 70.588684%)" offset="0.5625"/><stop stop-opacity="1" stop-color="rgb(21.958923%, 38.624573%, 70.573425%)" offset="0.570312"/><stop stop-opacity="1" stop-color="rgb(21.958923%, 38.233948%, 70.379639%)" offset="0.578125"/><stop stop-opacity="1" stop-color="rgb(21.958923%, 37.846375%, 70.002747%)" offset="0.582031"/><stop stop-opacity="1" stop-color="rgb(21.958923%, 37.65564%, 69.805908%)" offset="0.585937"/><stop stop-opacity="1" stop-color="rgb(21.763611%, 37.652588%, 69.802856%)" offset="0.59375"/><stop stop-opacity="1" stop-color="rgb(21.395874%, 37.449646%, 69.604492%)" offset="0.597656"/><stop stop-opacity="1" stop-color="rgb(21.221924%, 37.249756%, 69.40918%)" offset="0.601562"/><stop stop-opacity="1" stop-color="rgb(21.200562%, 37.036133%, 69.213867%)" offset="0.605469"/><stop stop-opacity="1" stop-color="rgb(21.179199%, 36.82251%, 69.018555%)" offset="0.609375"/><stop stop-opacity="1" stop-color="rgb(21.179199%, 36.636353%, 68.823242%)" offset="0.617187"/><stop stop-opacity="1" stop-color="rgb(21.179199%, 36.265564%, 68.629456%)" offset="0.625"/><stop stop-opacity="1" stop-color="rgb(21.179199%, 35.89325%, 68.443298%)" offset="0.632812"/><stop stop-opacity="1" stop-color="rgb(21.179199%, 35.517883%, 68.247986%)" offset="0.640625"/><stop stop-opacity="1" stop-color="rgb(20.979309%, 35.287476%, 68.03894%)" offset="0.644531"/><stop stop-opacity="1" stop-color="rgb(20.779419%, 35.247803%, 67.83905%)" offset="0.648437"/><stop stop-opacity="1" stop-color="rgb(20.779419%, 35.061646%, 67.826843%)" offset="0.65625"/><stop stop-opacity="1" stop-color="rgb(20.779419%, 34.692383%, 67.631531%)" offset="0.664062"/><stop stop-opacity="1" stop-color="rgb(20.779419%, 34.320068%, 67.449951%)" offset="0.671875"/><stop stop-opacity="1" stop-color="rgb(20.584106%, 33.946228%, 67.254639%)" offset="0.679687"/><stop stop-opacity="1" stop-color="rgb(20.388794%, 33.744812%, 66.864014%)" offset="0.6875"/><stop stop-opacity="1" stop-color="rgb(20.388794%, 33.514404%, 66.468811%)" offset="0.691406"/><stop stop-opacity="1" stop-color="rgb(20.388794%, 33.299255%, 66.268921%)" offset="0.695312"/><stop stop-opacity="1" stop-color="rgb(20.38269%, 33.113098%, 66.262817%)" offset="0.703125"/><stop stop-opacity="1" stop-color="rgb(20.188904%, 32.737732%, 66.069031%)" offset="0.710937"/><stop stop-opacity="1" stop-color="rgb(19.999695%, 32.365417%, 65.879822%)" offset="0.71875"/><stop stop-opacity="1" stop-color="rgb(19.999695%, 31.993103%, 65.684509%)" offset="0.726562"/><stop stop-opacity="1" stop-color="rgb(19.981384%, 31.762695%, 65.293884%)" offset="0.734375"/><stop stop-opacity="1" stop-color="rgb(19.786072%, 31.536865%, 65.089417%)" offset="0.742188"/><stop stop-opacity="1" stop-color="rgb(19.60907%, 31.166077%, 64.89563%)" offset="0.75"/><stop stop-opacity="1" stop-color="rgb(19.60907%, 30.793762%, 64.518738%)" offset="0.757812"/><stop stop-opacity="1" stop-color="rgb(19.60907%, 30.421448%, 64.318848%)" offset="0.765625"/><stop stop-opacity="1" stop-color="rgb(19.587708%, 30.01709%, 64.11438%)" offset="0.769531"/><stop stop-opacity="1" stop-color="rgb(19.567871%, 29.798889%, 63.919067%)" offset="0.773438"/><stop stop-opacity="1" stop-color="rgb(19.393921%, 29.786682%, 63.90686%)" offset="0.78125"/><stop stop-opacity="1" stop-color="rgb(19.219971%, 29.592896%, 63.713074%)" offset="0.789063"/><stop stop-opacity="1" stop-color="rgb(19.219971%, 29.220581%, 63.529968%)" offset="0.796875"/><stop stop-opacity="1" stop-color="rgb(19.219971%, 29.025269%, 63.334656%)" offset="0.804688"/><stop stop-opacity="1" stop-color="rgb(19.219971%, 28.823853%, 62.968445%)" offset="0.8125"/><stop stop-opacity="1" stop-color="rgb(19.018555%, 28.417969%, 62.757874%)" offset="0.816406"/><stop stop-opacity="1" stop-color="rgb(18.818665%, 28.208923%, 62.718201%)" offset="0.820313"/><stop stop-opacity="1" stop-color="rgb(18.818665%, 28.024292%, 62.527466%)" offset="0.828125"/><stop stop-opacity="1" stop-color="rgb(18.818665%, 27.644348%, 62.149048%)" offset="0.84375"/><stop stop-opacity="1" stop-color="rgb(18.644714%, 27.253723%, 61.764526%)" offset="0.851563"/><stop stop-opacity="1" stop-color="rgb(18.450928%, 26.864624%, 61.550903%)" offset="0.859375"/><stop stop-opacity="1" stop-color="rgb(18.429565%, 26.660156%, 61.355591%)" offset="0.867188"/><stop stop-opacity="1" stop-color="rgb(18.429565%, 26.460266%, 61.178589%)" offset="0.875"/><stop stop-opacity="1" stop-color="rgb(18.429565%, 26.074219%, 60.978699%)" offset="0.878906"/><stop stop-opacity="1" stop-color="rgb(18.429565%, 25.878906%, 60.778809%)" offset="0.882813"/><stop stop-opacity="1" stop-color="rgb(18.429565%, 25.683594%, 60.601807%)" offset="0.890625"/><stop stop-opacity="1" stop-color="rgb(18.234253%, 25.294495%, 60.386658%)" offset="0.898438"/><stop stop-opacity="1" stop-color="rgb(18.03894%, 25.086975%, 60.173035%)" offset="0.90625"/><stop stop-opacity="1" stop-color="rgb(18.03894%, 24.891663%, 59.803772%)" offset="0.914063"/><stop stop-opacity="1" stop-color="rgb(18.03894%, 24.514771%, 59.609985%)" offset="0.921875"/><stop stop-opacity="1" stop-color="rgb(18.03894%, 24.31488%, 59.429932%)" offset="0.929688"/><stop stop-opacity="1" stop-color="rgb(17.868042%, 24.113464%, 59.234619%)" offset="0.9375"/><stop stop-opacity="1" stop-color="rgb(17.674255%, 23.724365%, 59.01947%)" offset="0.941406"/><stop stop-opacity="1" stop-color="rgb(17.649841%, 23.529053%, 58.81958%)" offset="0.945313"/><stop stop-opacity="1" stop-color="rgb(17.649841%, 23.33374%, 58.624268%)" offset="0.953125"/><stop stop-opacity="1" stop-color="rgb(17.462158%, 22.944641%, 58.24585%)" offset="0.96875"/><stop stop-opacity="1" stop-color="rgb(17.260742%, 22.570801%, 58.052063%)" offset="0.976563"/><stop stop-opacity="1" stop-color="rgb(17.248535%, 22.370911%, 57.844543%)" offset="0.984375"/><stop stop-opacity="1" stop-color="rgb(17.248535%, 22.154236%, 57.640076%)" offset="0.992188"/><stop stop-opacity="1" stop-color="rgb(17.248535%, 21.958923%, 57.440186%)" offset="1"/></linearGradient><clipPath id="40c01cfbe4"><rect x="0" width="31" y="0" height="45"/></clipPath><clipPath id="5095e6d847"><rect x="0" width="155" y="0" height="39"/></clipPath><clipPath id="ee374ce4ef"><path d="M 0.078125 3 L 5 3 L 5 10 L 0.078125 10 Z M 0.078125 3 " clip-rule="nonzero"/></clipPath><clipPath id="eb3ff79836"><rect x="0" width="200" y="0" height="12"/></clipPath></defs><g clip-path="url(#c423643aa7)"><g clip-path="url(#5250cf0ad3)"><g transform="matrix(1, 0, 0, 1, 1, 0)"><g clip-path="url(#6506601295)"><g clip-path="url(#1e316eeb6f)"><g clip-path="url(#0337787de1)"><path fill="#ffffff" d="M 0.304688 0 L 374 0 L 374 375.15625 L 0.304688 375.15625 Z M 0.304688 0 " fill-opacity="1" fill-rule="nonzero"/></g></g></g></g></g></g><g clip-path="url(#36394f72fa)"><g clip-path="url(#9ab7ac0841)"><g clip-path="url(#6f1a102910)"><path fill="url(#732ba8eb00)" d="M 57.992188 111.222656 L 57.992188 194.40625 L 318.242188 194.40625 L 318.242188 111.222656 Z M 57.992188 111.222656 " fill-rule="nonzero"/></g></g></g><g clip-path="url(#5fd473eab0)"><g clip-path="url(#d3424214ae)"><g clip-path="url(#f62da73065)"><path fill="url(#5dd9b0846a)" d="M 150.574219 115.300781 L 150.574219 190.328125 L 225.65625 190.328125 L 225.65625 115.300781 Z M 150.574219 115.300781 " fill-rule="nonzero"/></g></g></g><g transform="matrix(1, 0, 0, 1, 173, 130)"><g clip-path="url(#40c01cfbe4)"><g fill="#225aa5" fill-opacity="1"><g transform="translate(0.396935, 34.375881)"><g><path d="M 11.828125 0 L 6.9375 0 L 6.9375 -19.046875 L 0.65625 -19.046875 L 0.65625 -23.140625 L 18.125 -23.140625 L 18.125 -19.046875 L 11.828125 -19.046875 Z M 11.828125 0 "/></g></g></g><g fill="#225aa5" fill-opacity="1"><g transform="translate(19.164214, 34.375881)"><g><path d="M 2.90625 0 L 2.90625 -23.140625 L 7.8125 -23.140625 L 7.8125 0 Z M 2.90625 0 "/></g></g></g></g></g><g transform="matrix(1, 0, 0, 1, 111, 199)"><g clip-path="url(#5095e6d847)"><g fill="#225aa5" fill-opacity="1"><g transform="translate(0.5082, 30.245957)"><g><path d="M 10.140625 0 L 5.9375 0 L 5.9375 -16.328125 L 0.5625 -16.328125 L 0.5625 -19.828125 L 15.515625 -19.828125 L 15.515625 -16.328125 L 10.140625 -16.328125 Z M 10.140625 0 "/></g></g></g><g fill="#225aa5" fill-opacity="1"><g transform="translate(16.582188, 30.245957)"><g><path d="M 13.90625 0 L 2.5 0 L 2.5 -19.828125 L 13.90625 -19.828125 L 13.90625 -16.375 L 6.703125 -16.375 L 6.703125 -12.03125 L 13.40625 -12.03125 L 13.40625 -8.578125 L 6.703125 -8.578125 L 6.703125 -3.46875 L 13.90625 -3.46875 Z M 13.90625 0 "/></g></g></g><g fill="#225aa5" fill-opacity="1"><g transform="translate(32.127604, 30.245957)"><g><path d="M 10.90625 -16.609375 C 9.332031 -16.609375 8.109375 -16.015625 7.234375 -14.828125 C 6.367188 -13.640625 5.9375 -11.984375 5.9375 -9.859375 C 5.9375 -5.441406 7.59375 -3.234375 10.90625 -3.234375 C 12.300781 -3.234375 13.988281 -3.578125 15.96875 -4.265625 L 15.96875 -0.75 C 14.34375 -0.0703125 12.523438 0.265625 10.515625 0.265625 C 7.640625 0.265625 5.4375 -0.601562 3.90625 -2.34375 C 2.375 -4.09375 1.609375 -6.609375 1.609375 -9.890625 C 1.609375 -11.941406 1.984375 -13.742188 2.734375 -15.296875 C 3.484375 -16.847656 4.5625 -18.035156 5.96875 -18.859375 C 7.375 -19.691406 9.019531 -20.109375 10.90625 -20.109375 C 12.832031 -20.109375 14.769531 -19.640625 16.71875 -18.703125 L 15.359375 -15.296875 C 14.617188 -15.648438 13.875 -15.957031 13.125 -16.21875 C 12.375 -16.476562 11.632812 -16.609375 10.90625 -16.609375 Z M 10.90625 -16.609375 "/></g></g></g><g fill="#225aa5" fill-opacity="1"><g transform="translate(49.814413, 30.245957)"><g><path d="M 20.828125 0 L 15.71875 0 L 14.15625 -1.53125 C 12.425781 -0.332031 10.472656 0.265625 8.296875 0.265625 C 6.085938 0.265625 4.335938 -0.238281 3.046875 -1.25 C 1.753906 -2.257812 1.109375 -3.628906 1.109375 -5.359375 C 1.109375 -6.597656 1.378906 -7.648438 1.921875 -8.515625 C 2.472656 -9.390625 3.414062 -10.207031 4.75 -10.96875 C 4.070312 -11.75 3.578125 -12.492188 3.265625 -13.203125 C 2.960938 -13.910156 2.8125 -14.679688 2.8125 -15.515625 C 2.8125 -16.890625 3.335938 -18 4.390625 -18.84375 C 5.441406 -19.6875 6.847656 -20.109375 8.609375 -20.109375 C 10.285156 -20.109375 11.628906 -19.71875 12.640625 -18.9375 C 13.648438 -18.15625 14.15625 -17.109375 14.15625 -15.796875 C 14.15625 -14.722656 13.84375 -13.738281 13.21875 -12.84375 C 12.59375 -11.957031 11.582031 -11.109375 10.1875 -10.296875 L 14.046875 -6.546875 C 14.691406 -7.609375 15.25 -8.96875 15.71875 -10.625 L 20.03125 -10.625 C 19.695312 -9.40625 19.242188 -8.210938 18.671875 -7.046875 C 18.109375 -5.890625 17.46875 -4.863281 16.75 -3.96875 Z M 5.46875 -5.75 C 5.46875 -4.96875 5.757812 -4.347656 6.34375 -3.890625 C 6.925781 -3.429688 7.671875 -3.203125 8.578125 -3.203125 C 9.722656 -3.203125 10.75 -3.476562 11.65625 -4.03125 L 7.15625 -8.5 C 6.632812 -8.101562 6.222656 -7.6875 5.921875 -7.25 C 5.617188 -6.820312 5.46875 -6.320312 5.46875 -5.75 Z M 10.328125 -15.359375 C 10.328125 -15.835938 10.164062 -16.210938 9.84375 -16.484375 C 9.519531 -16.765625 9.097656 -16.90625 8.578125 -16.90625 C 7.972656 -16.90625 7.492188 -16.757812 7.140625 -16.46875 C 6.796875 -16.175781 6.625 -15.765625 6.625 -15.234375 C 6.625 -14.441406 7.054688 -13.566406 7.921875 -12.609375 C 8.691406 -13.046875 9.285156 -13.472656 9.703125 -13.890625 C 10.117188 -14.304688 10.328125 -14.796875 10.328125 -15.359375 Z M 10.328125 -15.359375 "/></g></g></g><g fill="#225aa5" fill-opacity="1"><g transform="translate(70.63199, 30.245957)"><g><path d="M 20.078125 0 L 14.734375 0 L 6.109375 -15 L 6 -15 C 6.164062 -12.34375 6.25 -10.453125 6.25 -9.328125 L 6.25 0 L 2.5 0 L 2.5 -19.828125 L 7.796875 -19.828125 L 16.40625 -4.96875 L 16.5 -4.96875 C 16.363281 -7.550781 16.296875 -9.375 16.296875 -10.4375 L 16.296875 -19.828125 L 20.078125 -19.828125 Z M 20.078125 0 "/></g></g></g><g fill="#225aa5" fill-opacity="1"><g transform="translate(93.197917, 30.245957)"><g><path d="M 20.484375 -9.9375 C 20.484375 -6.65625 19.671875 -4.132812 18.046875 -2.375 C 16.421875 -0.613281 14.085938 0.265625 11.046875 0.265625 C 8.015625 0.265625 5.679688 -0.613281 4.046875 -2.375 C 2.421875 -4.132812 1.609375 -6.664062 1.609375 -9.96875 C 1.609375 -13.257812 2.421875 -15.773438 4.046875 -17.515625 C 5.679688 -19.253906 8.023438 -20.125 11.078125 -20.125 C 14.117188 -20.125 16.445312 -19.25 18.0625 -17.5 C 19.675781 -15.75 20.484375 -13.226562 20.484375 -9.9375 Z M 6.015625 -9.9375 C 6.015625 -7.71875 6.4375 -6.046875 7.28125 -4.921875 C 8.125 -3.804688 9.378906 -3.25 11.046875 -3.25 C 14.398438 -3.25 16.078125 -5.476562 16.078125 -9.9375 C 16.078125 -14.40625 14.410156 -16.640625 11.078125 -16.640625 C 9.398438 -16.640625 8.132812 -16.078125 7.28125 -14.953125 C 6.4375 -13.828125 6.015625 -12.15625 6.015625 -9.9375 Z M 6.015625 -9.9375 "/></g></g></g><g fill="#225aa5" fill-opacity="1"><g transform="translate(115.289486, 30.245957)"><g><path d="M 13.796875 -19.828125 L 18.046875 -19.828125 L 11.3125 0 L 6.71875 0 L 0 -19.828125 L 4.25 -19.828125 L 7.96875 -8.03125 C 8.175781 -7.332031 8.390625 -6.519531 8.609375 -5.59375 C 8.835938 -4.664062 8.976562 -4.019531 9.03125 -3.65625 C 9.125 -4.488281 9.460938 -5.945312 10.046875 -8.03125 Z M 13.796875 -19.828125 "/></g></g></g><g fill="#225aa5" fill-opacity="1"><g transform="translate(133.328675, 30.245957)"><g><path d="M 14.625 0 L 13.1875 -4.71875 L 5.96875 -4.71875 L 4.53125 0 L 0 0 L 7 -19.90625 L 12.140625 -19.90625 L 19.15625 0 Z M 12.1875 -8.25 C 10.851562 -12.519531 10.101562 -14.9375 9.9375 -15.5 C 9.769531 -16.0625 9.648438 -16.503906 9.578125 -16.828125 C 9.285156 -15.671875 8.429688 -12.8125 7.015625 -8.25 Z M 12.1875 -8.25 "/></g></g></g></g></g><g transform="matrix(1, 0, 0, 1, 88, 247)"><g clip-path="url(#eb3ff79836)"><g clip-path="url(#ee374ce4ef)"><g fill="#225aa5" fill-opacity="1"><g transform="translate(0.524977, 9.141626)"><g><path d="M 2.515625 0 L 1.859375 0 L 1.859375 -5.0625 L 0.0625 -5.0625 L 0.0625 -5.640625 L 4.296875 -5.640625 L 4.296875 -5.0625 L 2.515625 -5.0625 Z M 2.515625 0 "/></g></g></g></g><g fill="#225aa5" fill-opacity="1"><g transform="translate(5.860168, 9.141626)"><g><path d="M 3.921875 0 L 0.78125 0 L 0.78125 -5.640625 L 3.921875 -5.640625 L 3.921875 -5.0625 L 1.4375 -5.0625 L 1.4375 -3.25 L 3.765625 -3.25 L 3.765625 -2.65625 L 1.4375 -2.65625 L 1.4375 -0.59375 L 3.921875 -0.59375 Z M 3.921875 0 "/></g></g></g><g fill="#225aa5" fill-opacity="1"><g transform="translate(11.218503, 9.141626)"><g><path d="M 3.1875 -5.140625 C 2.570312 -5.140625 2.082031 -4.929688 1.71875 -4.515625 C 1.363281 -4.109375 1.1875 -3.546875 1.1875 -2.828125 C 1.1875 -2.085938 1.359375 -1.515625 1.703125 -1.109375 C 2.046875 -0.703125 2.539062 -0.5 3.1875 -0.5 C 3.582031 -0.5 4.03125 -0.570312 4.53125 -0.71875 L 4.53125 -0.140625 C 4.144531 0.00390625 3.660156 0.078125 3.078125 0.078125 C 2.253906 0.078125 1.613281 -0.171875 1.15625 -0.671875 C 0.707031 -1.179688 0.484375 -1.898438 0.484375 -2.828125 C 0.484375 -3.410156 0.59375 -3.921875 0.8125 -4.359375 C 1.03125 -4.796875 1.34375 -5.128906 1.75 -5.359375 C 2.15625 -5.597656 2.640625 -5.71875 3.203125 -5.71875 C 3.796875 -5.71875 4.3125 -5.613281 4.75 -5.40625 L 4.46875 -4.84375 C 4.039062 -5.039062 3.613281 -5.140625 3.1875 -5.140625 Z M 3.1875 -5.140625 "/></g></g></g><g fill="#225aa5" fill-opacity="1"><g transform="translate(17.16705, 9.141626)"><g><path d="M 5.1875 0 L 4.4375 0 L 1.34375 -4.734375 L 1.3125 -4.734375 C 1.351562 -4.179688 1.375 -3.671875 1.375 -3.203125 L 1.375 0 L 0.78125 0 L 0.78125 -5.640625 L 1.515625 -5.640625 L 4.59375 -0.921875 L 4.625 -0.921875 C 4.613281 -0.992188 4.597656 -1.21875 4.578125 -1.59375 C 4.566406 -1.96875 4.566406 -2.238281 4.578125 -2.40625 L 4.578125 -5.640625 L 5.1875 -5.640625 Z M 5.1875 0 "/></g></g></g><g fill="#225aa5" fill-opacity="1"><g transform="translate(24.087711, 9.141626)"><g><path d="M 5.671875 -2.828125 C 5.671875 -1.921875 5.441406 -1.207031 4.984375 -0.6875 C 4.523438 -0.175781 3.890625 0.078125 3.078125 0.078125 C 2.253906 0.078125 1.613281 -0.175781 1.15625 -0.6875 C 0.707031 -1.195312 0.484375 -1.914062 0.484375 -2.84375 C 0.484375 -3.757812 0.707031 -4.46875 1.15625 -4.96875 C 1.613281 -5.476562 2.257812 -5.734375 3.09375 -5.734375 C 3.90625 -5.734375 4.535156 -5.472656 4.984375 -4.953125 C 5.441406 -4.441406 5.671875 -3.734375 5.671875 -2.828125 Z M 1.171875 -2.828125 C 1.171875 -2.066406 1.332031 -1.488281 1.65625 -1.09375 C 1.988281 -0.695312 2.460938 -0.5 3.078125 -0.5 C 3.703125 -0.5 4.175781 -0.691406 4.5 -1.078125 C 4.820312 -1.472656 4.984375 -2.054688 4.984375 -2.828125 C 4.984375 -3.585938 4.820312 -4.160156 4.5 -4.546875 C 4.1875 -4.941406 3.71875 -5.140625 3.09375 -5.140625 C 2.46875 -5.140625 1.988281 -4.941406 1.65625 -4.546875 C 1.332031 -4.148438 1.171875 -3.578125 1.171875 -2.828125 Z M 1.171875 -2.828125 "/></g></g></g><g fill="#225aa5" fill-opacity="1"><g transform="translate(31.205108, 9.141626)"><g><path d="M 0.78125 0 L 0.78125 -5.640625 L 1.4375 -5.640625 L 1.4375 -0.59375 L 3.921875 -0.59375 L 3.921875 0 Z M 0.78125 0 "/></g></g></g><g fill="#225aa5" fill-opacity="1"><g transform="translate(36.270267, 9.141626)"><g><path d="M 5.671875 -2.828125 C 5.671875 -1.921875 5.441406 -1.207031 4.984375 -0.6875 C 4.523438 -0.175781 3.890625 0.078125 3.078125 0.078125 C 2.253906 0.078125 1.613281 -0.175781 1.15625 -0.6875 C 0.707031 -1.195312 0.484375 -1.914062 0.484375 -2.84375 C 0.484375 -3.757812 0.707031 -4.46875 1.15625 -4.96875 C 1.613281 -5.476562 2.257812 -5.734375 3.09375 -5.734375 C 3.90625 -5.734375 4.535156 -5.472656 4.984375 -4.953125 C 5.441406 -4.441406 5.671875 -3.734375 5.671875 -2.828125 Z M 1.171875 -2.828125 C 1.171875 -2.066406 1.332031 -1.488281 1.65625 -1.09375 C 1.988281 -0.695312 2.460938 -0.5 3.078125 -0.5 C 3.703125 -0.5 4.175781 -0.691406 4.5 -1.078125 C 4.820312 -1.472656 4.984375 -2.054688 4.984375 -2.828125 C 4.984375 -3.585938 4.820312 -4.160156 4.5 -4.546875 C 4.1875 -4.941406 3.71875 -5.140625 3.09375 -5.140625 C 2.46875 -5.140625 1.988281 -4.941406 1.65625 -4.546875 C 1.332031 -4.148438 1.171875 -3.578125 1.171875 -2.828125 Z M 1.171875 -2.828125 "/></g></g></g><g fill="#225aa5" fill-opacity="1"><g transform="translate(43.387664, 9.141626)"><g><path d="M 3.265625 -2.953125 L 5.171875 -2.953125 L 5.171875 -0.21875 C 4.878906 -0.113281 4.578125 -0.0390625 4.265625 0 C 3.953125 0.0507812 3.59375 0.078125 3.1875 0.078125 C 2.332031 0.078125 1.664062 -0.175781 1.1875 -0.6875 C 0.71875 -1.195312 0.484375 -1.910156 0.484375 -2.828125 C 0.484375 -3.410156 0.597656 -3.921875 0.828125 -4.359375 C 1.066406 -4.804688 1.40625 -5.144531 1.84375 -5.375 C 2.289062 -5.601562 2.8125 -5.71875 3.40625 -5.71875 C 4.007812 -5.71875 4.570312 -5.609375 5.09375 -5.390625 L 4.84375 -4.8125 C 4.332031 -5.03125 3.835938 -5.140625 3.359375 -5.140625 C 2.671875 -5.140625 2.132812 -4.929688 1.75 -4.515625 C 1.363281 -4.109375 1.171875 -3.546875 1.171875 -2.828125 C 1.171875 -2.054688 1.359375 -1.472656 1.734375 -1.078125 C 2.109375 -0.691406 2.65625 -0.5 3.375 -0.5 C 3.757812 -0.5 4.140625 -0.546875 4.515625 -0.640625 L 4.515625 -2.375 L 3.265625 -2.375 Z M 3.265625 -2.953125 "/></g></g></g><g fill="#225aa5" fill-opacity="1"><g transform="translate(50.103872, 9.141626)"><g><path d="M 0.78125 0 L 0.78125 -5.640625 L 1.4375 -5.640625 L 1.4375 0 Z M 0.78125 0 "/></g></g></g><g fill="#225aa5" fill-opacity="1"><g transform="translate(53.271096, 9.141626)"><g><path d="M 4.328125 0 L 3.625 -1.796875 L 1.359375 -1.796875 L 0.65625 0 L 0 0 L 2.234375 -5.671875 L 2.78125 -5.671875 L 5 0 Z M 3.421875 -2.390625 L 2.765625 -4.140625 C 2.679688 -4.359375 2.59375 -4.628906 2.5 -4.953125 C 2.4375 -4.703125 2.351562 -4.429688 2.25 -4.140625 L 1.59375 -2.390625 Z M 3.421875 -2.390625 "/></g></g></g><g fill="#225aa5" fill-opacity="1"><g transform="translate(59.235073, 9.141626)"><g/></g></g><g fill="#225aa5" fill-opacity="1"><g transform="translate(62.251851, 9.141626)"><g><path d="M 3.921875 0 L 0.78125 0 L 0.78125 -5.640625 L 3.921875 -5.640625 L 3.921875 -5.0625 L 1.4375 -5.0625 L 1.4375 -3.25 L 3.765625 -3.25 L 3.765625 -2.65625 L 1.4375 -2.65625 L 1.4375 -0.59375 L 3.921875 -0.59375 Z M 3.921875 0 "/></g></g></g><g fill="#225aa5" fill-opacity="1"><g transform="translate(67.610186, 9.141626)"><g><path d="M 1.4375 0 L 0.78125 0 L 0.78125 -5.640625 L 3.921875 -5.640625 L 3.921875 -5.0625 L 1.4375 -5.0625 L 1.4375 -3 L 3.765625 -3 L 3.765625 -2.40625 L 1.4375 -2.40625 Z M 1.4375 0 "/></g></g></g><g fill="#225aa5" fill-opacity="1"><g transform="translate(72.652199, 9.141626)"><g><path d="M 0.78125 0 L 0.78125 -5.640625 L 1.4375 -5.640625 L 1.4375 0 Z M 0.78125 0 "/></g></g></g><g fill="#225aa5" fill-opacity="1"><g transform="translate(75.819423, 9.141626)"><g><path d="M 3.1875 -5.140625 C 2.570312 -5.140625 2.082031 -4.929688 1.71875 -4.515625 C 1.363281 -4.109375 1.1875 -3.546875 1.1875 -2.828125 C 1.1875 -2.085938 1.359375 -1.515625 1.703125 -1.109375 C 2.046875 -0.703125 2.539062 -0.5 3.1875 -0.5 C 3.582031 -0.5 4.03125 -0.570312 4.53125 -0.71875 L 4.53125 -0.140625 C 4.144531 0.00390625 3.660156 0.078125 3.078125 0.078125 C 2.253906 0.078125 1.613281 -0.171875 1.15625 -0.671875 C 0.707031 -1.179688 0.484375 -1.898438 0.484375 -2.828125 C 0.484375 -3.410156 0.59375 -3.921875 0.8125 -4.359375 C 1.03125 -4.796875 1.34375 -5.128906 1.75 -5.359375 C 2.15625 -5.597656 2.640625 -5.71875 3.203125 -5.71875 C 3.796875 -5.71875 4.3125 -5.613281 4.75 -5.40625 L 4.46875 -4.84375 C 4.039062 -5.039062 3.613281 -5.140625 3.1875 -5.140625 Z M 3.1875 -5.140625 "/></g></g></g><g fill="#225aa5" fill-opacity="1"><g transform="translate(81.76797, 9.141626)"><g><path d="M 0.78125 0 L 0.78125 -5.640625 L 1.4375 -5.640625 L 1.4375 0 Z M 0.78125 0 "/></g></g></g><g fill="#225aa5" fill-opacity="1"><g transform="translate(84.935193, 9.141626)"><g><path d="M 3.921875 0 L 0.78125 0 L 0.78125 -5.640625 L 3.921875 -5.640625 L 3.921875 -5.0625 L 1.4375 -5.0625 L 1.4375 -3.25 L 3.765625 -3.25 L 3.765625 -2.65625 L 1.4375 -2.65625 L 1.4375 -0.59375 L 3.921875 -0.59375 Z M 3.921875 0 "/></g></g></g><g fill="#225aa5" fill-opacity="1"><g transform="translate(90.293529, 9.141626)"><g><path d="M 5.1875 0 L 4.4375 0 L 1.34375 -4.734375 L 1.3125 -4.734375 C 1.351562 -4.179688 1.375 -3.671875 1.375 -3.203125 L 1.375 0 L 0.78125 0 L 0.78125 -5.640625 L 1.515625 -5.640625 L 4.59375 -0.921875 L 4.625 -0.921875 C 4.613281 -0.992188 4.597656 -1.21875 4.578125 -1.59375 C 4.566406 -1.96875 4.566406 -2.238281 4.578125 -2.40625 L 4.578125 -5.640625 L 5.1875 -5.640625 Z M 5.1875 0 "/></g></g></g><g fill="#225aa5" fill-opacity="1"><g transform="translate(97.214189, 9.141626)"><g><path d="M 2.515625 0 L 1.859375 0 L 1.859375 -5.0625 L 0.0625 -5.0625 L 0.0625 -5.640625 L 4.296875 -5.640625 L 4.296875 -5.0625 L 2.515625 -5.0625 Z M 2.515625 0 "/></g></g></g><g fill="#225aa5" fill-opacity="1"><g transform="translate(102.549379, 9.141626)"><g><path d="M 3.921875 0 L 0.78125 0 L 0.78125 -5.640625 L 3.921875 -5.640625 L 3.921875 -5.0625 L 1.4375 -5.0625 L 1.4375 -3.25 L 3.765625 -3.25 L 3.765625 -2.65625 L 1.4375 -2.65625 L 1.4375 -0.59375 L 3.921875 -0.59375 Z M 3.921875 0 "/></g></g></g><g fill="#225aa5" fill-opacity="1"><g transform="translate(107.907715, 9.141626)"><g><path d="M 1.34375 -0.921875 L 1.40625 -0.828125 C 1.34375 -0.566406 1.25 -0.269531 1.125 0.0625 C 1 0.40625 0.863281 0.722656 0.71875 1.015625 L 0.25 1.015625 C 0.3125 0.753906 0.382812 0.425781 0.46875 0.03125 C 0.550781 -0.363281 0.613281 -0.679688 0.65625 -0.921875 Z M 1.34375 -0.921875 "/></g></g></g><g fill="#225aa5" fill-opacity="1"><g transform="translate(110.808765, 9.141626)"><g/></g></g><g fill="#225aa5" fill-opacity="1"><g transform="translate(113.825542, 9.141626)"><g><path d="M 4.359375 -4 C 4.359375 -3.425781 4.160156 -2.984375 3.765625 -2.671875 C 3.378906 -2.367188 2.820312 -2.21875 2.09375 -2.21875 L 1.4375 -2.21875 L 1.4375 0 L 0.78125 0 L 0.78125 -5.640625 L 2.234375 -5.640625 C 3.648438 -5.640625 4.359375 -5.09375 4.359375 -4 Z M 1.4375 -2.78125 L 2.015625 -2.78125 C 2.597656 -2.78125 3.019531 -2.875 3.28125 -3.0625 C 3.539062 -3.25 3.671875 -3.550781 3.671875 -3.96875 C 3.671875 -4.34375 3.546875 -4.617188 3.296875 -4.796875 C 3.054688 -4.984375 2.679688 -5.078125 2.171875 -5.078125 L 1.4375 -5.078125 Z M 1.4375 -2.78125 "/></g></g></g><g fill="#225aa5" fill-opacity="1"><g transform="translate(119.546491, 9.141626)"><g><path d="M 1.4375 -2.34375 L 1.4375 0 L 0.78125 0 L 0.78125 -5.640625 L 2.328125 -5.640625 C 3.015625 -5.640625 3.523438 -5.503906 3.859375 -5.234375 C 4.191406 -4.972656 4.359375 -4.578125 4.359375 -4.046875 C 4.359375 -3.304688 3.976562 -2.800781 3.21875 -2.53125 L 4.75 0 L 3.96875 0 L 2.609375 -2.34375 Z M 1.4375 -2.90625 L 2.328125 -2.90625 C 2.796875 -2.90625 3.132812 -3 3.34375 -3.1875 C 3.5625 -3.375 3.671875 -3.648438 3.671875 -4.015625 C 3.671875 -4.390625 3.5625 -4.65625 3.34375 -4.8125 C 3.125 -4.976562 2.769531 -5.0625 2.28125 -5.0625 L 1.4375 -5.0625 Z M 1.4375 -2.90625 "/></g></g></g><g fill="#225aa5" fill-opacity="1"><g transform="translate(125.394741, 9.141626)"><g><path d="M 5.671875 -2.828125 C 5.671875 -1.921875 5.441406 -1.207031 4.984375 -0.6875 C 4.523438 -0.175781 3.890625 0.078125 3.078125 0.078125 C 2.253906 0.078125 1.613281 -0.175781 1.15625 -0.6875 C 0.707031 -1.195312 0.484375 -1.914062 0.484375 -2.84375 C 0.484375 -3.757812 0.707031 -4.46875 1.15625 -4.96875 C 1.613281 -5.476562 2.257812 -5.734375 3.09375 -5.734375 C 3.90625 -5.734375 4.535156 -5.472656 4.984375 -4.953125 C 5.441406 -4.441406 5.671875 -3.734375 5.671875 -2.828125 Z M 1.171875 -2.828125 C 1.171875 -2.066406 1.332031 -1.488281 1.65625 -1.09375 C 1.988281 -0.695312 2.460938 -0.5 3.078125 -0.5 C 3.703125 -0.5 4.175781 -0.691406 4.5 -1.078125 C 4.820312 -1.472656 4.984375 -2.054688 4.984375 -2.828125 C 4.984375 -3.585938 4.820312 -4.160156 4.5 -4.546875 C 4.1875 -4.941406 3.71875 -5.140625 3.09375 -5.140625 C 2.46875 -5.140625 1.988281 -4.941406 1.65625 -4.546875 C 1.332031 -4.148438 1.171875 -3.578125 1.171875 -2.828125 Z M 1.171875 -2.828125 "/></g></g></g><g fill="#225aa5" fill-opacity="1"><g transform="translate(132.512138, 9.141626)"><g><path d="M 3.1875 -5.140625 C 2.570312 -5.140625 2.082031 -4.929688 1.71875 -4.515625 C 1.363281 -4.109375 1.1875 -3.546875 1.1875 -2.828125 C 1.1875 -2.085938 1.359375 -1.515625 1.703125 -1.109375 C 2.046875 -0.703125 2.539062 -0.5 3.1875 -0.5 C 3.582031 -0.5 4.03125 -0.570312 4.53125 -0.71875 L 4.53125 -0.140625 C 4.144531 0.00390625 3.660156 0.078125 3.078125 0.078125 C 2.253906 0.078125 1.613281 -0.171875 1.15625 -0.671875 C 0.707031 -1.179688 0.484375 -1.898438 0.484375 -2.828125 C 0.484375 -3.410156 0.59375 -3.921875 0.8125 -4.359375 C 1.03125 -4.796875 1.34375 -5.128906 1.75 -5.359375 C 2.15625 -5.597656 2.640625 -5.71875 3.203125 -5.71875 C 3.796875 -5.71875 4.3125 -5.613281 4.75 -5.40625 L 4.46875 -4.84375 C 4.039062 -5.039062 3.613281 -5.140625 3.1875 -5.140625 Z M 3.1875 -5.140625 "/></g></g></g><g fill="#225aa5" fill-opacity="1"><g transform="translate(138.460686, 9.141626)"><g><path d="M 3.921875 0 L 0.78125 0 L 0.78125 -5.640625 L 3.921875 -5.640625 L 3.921875 -5.0625 L 1.4375 -5.0625 L 1.4375 -3.25 L 3.765625 -3.25 L 3.765625 -2.65625 L 1.4375 -2.65625 L 1.4375 -0.59375 L 3.921875 -0.59375 Z M 3.921875 0 "/></g></g></g><g fill="#225aa5" fill-opacity="1"><g transform="translate(143.819021, 9.141626)"><g><path d="M 3.953125 -1.5 C 3.953125 -1 3.769531 -0.609375 3.40625 -0.328125 C 3.050781 -0.0546875 2.566406 0.078125 1.953125 0.078125 C 1.285156 0.078125 0.769531 -0.0078125 0.40625 -0.1875 L 0.40625 -0.8125 C 0.632812 -0.71875 0.882812 -0.640625 1.15625 -0.578125 C 1.4375 -0.523438 1.710938 -0.5 1.984375 -0.5 C 2.421875 -0.5 2.75 -0.582031 2.96875 -0.75 C 3.1875 -0.914062 3.296875 -1.144531 3.296875 -1.4375 C 3.296875 -1.632812 3.253906 -1.796875 3.171875 -1.921875 C 3.097656 -2.046875 2.96875 -2.160156 2.78125 -2.265625 C 2.601562 -2.367188 2.328125 -2.488281 1.953125 -2.625 C 1.421875 -2.8125 1.039062 -3.03125 0.8125 -3.28125 C 0.59375 -3.539062 0.484375 -3.878906 0.484375 -4.296875 C 0.484375 -4.734375 0.644531 -5.078125 0.96875 -5.328125 C 1.300781 -5.585938 1.734375 -5.71875 2.265625 -5.71875 C 2.828125 -5.71875 3.34375 -5.617188 3.8125 -5.421875 L 3.609375 -4.84375 C 3.148438 -5.039062 2.695312 -5.140625 2.25 -5.140625 C 1.90625 -5.140625 1.632812 -5.0625 1.4375 -4.90625 C 1.238281 -4.757812 1.140625 -4.554688 1.140625 -4.296875 C 1.140625 -4.097656 1.175781 -3.9375 1.25 -3.8125 C 1.320312 -3.6875 1.441406 -3.570312 1.609375 -3.46875 C 1.785156 -3.363281 2.050781 -3.25 2.40625 -3.125 C 3 -2.914062 3.40625 -2.6875 3.625 -2.4375 C 3.84375 -2.195312 3.953125 -1.882812 3.953125 -1.5 Z M 3.953125 -1.5 "/></g></g></g><g fill="#225aa5" fill-opacity="1"><g transform="translate(149.119493, 9.141626)"><g><path d="M 3.953125 -1.5 C 3.953125 -1 3.769531 -0.609375 3.40625 -0.328125 C 3.050781 -0.0546875 2.566406 0.078125 1.953125 0.078125 C 1.285156 0.078125 0.769531 -0.0078125 0.40625 -0.1875 L 0.40625 -0.8125 C 0.632812 -0.71875 0.882812 -0.640625 1.15625 -0.578125 C 1.4375 -0.523438 1.710938 -0.5 1.984375 -0.5 C 2.421875 -0.5 2.75 -0.582031 2.96875 -0.75 C 3.1875 -0.914062 3.296875 -1.144531 3.296875 -1.4375 C 3.296875 -1.632812 3.253906 -1.796875 3.171875 -1.921875 C 3.097656 -2.046875 2.96875 -2.160156 2.78125 -2.265625 C 2.601562 -2.367188 2.328125 -2.488281 1.953125 -2.625 C 1.421875 -2.8125 1.039062 -3.03125 0.8125 -3.28125 C 0.59375 -3.539062 0.484375 -3.878906 0.484375 -4.296875 C 0.484375 -4.734375 0.644531 -5.078125 0.96875 -5.328125 C 1.300781 -5.585938 1.734375 -5.71875 2.265625 -5.71875 C 2.828125 -5.71875 3.34375 -5.617188 3.8125 -5.421875 L 3.609375 -4.84375 C 3.148438 -5.039062 2.695312 -5.140625 2.25 -5.140625 C 1.90625 -5.140625 1.632812 -5.0625 1.4375 -4.90625 C 1.238281 -4.757812 1.140625 -4.554688 1.140625 -4.296875 C 1.140625 -4.097656 1.175781 -3.9375 1.25 -3.8125 C 1.320312 -3.6875 1.441406 -3.570312 1.609375 -3.46875 C 1.785156 -3.363281 2.050781 -3.25 2.40625 -3.125 C 3 -2.914062 3.40625 -2.6875 3.625 -2.4375 C 3.84375 -2.195312 3.953125 -1.882812 3.953125 -1.5 Z M 3.953125 -1.5 "/></g></g></g><g fill="#225aa5" fill-opacity="1"><g transform="translate(154.419965, 9.141626)"><g><path d="M 5.671875 -2.828125 C 5.671875 -1.921875 5.441406 -1.207031 4.984375 -0.6875 C 4.523438 -0.175781 3.890625 0.078125 3.078125 0.078125 C 2.253906 0.078125 1.613281 -0.175781 1.15625 -0.6875 C 0.707031 -1.195312 0.484375 -1.914062 0.484375 -2.84375 C 0.484375 -3.757812 0.707031 -4.46875 1.15625 -4.96875 C 1.613281 -5.476562 2.257812 -5.734375 3.09375 -5.734375 C 3.90625 -5.734375 4.535156 -5.472656 4.984375 -4.953125 C 5.441406 -4.441406 5.671875 -3.734375 5.671875 -2.828125 Z M 1.171875 -2.828125 C 1.171875 -2.066406 1.332031 -1.488281 1.65625 -1.09375 C 1.988281 -0.695312 2.460938 -0.5 3.078125 -0.5 C 3.703125 -0.5 4.175781 -0.691406 4.5 -1.078125 C 4.820312 -1.472656 4.984375 -2.054688 4.984375 -2.828125 C 4.984375 -3.585938 4.820312 -4.160156 4.5 -4.546875 C 4.1875 -4.941406 3.71875 -5.140625 3.09375 -5.140625 C 2.46875 -5.140625 1.988281 -4.941406 1.65625 -4.546875 C 1.332031 -4.148438 1.171875 -3.578125 1.171875 -2.828125 Z M 1.171875 -2.828125 "/></g></g></g><g fill="#225aa5" fill-opacity="1"><g transform="translate(161.537362, 9.141626)"><g><path d="M 3.953125 -1.5 C 3.953125 -1 3.769531 -0.609375 3.40625 -0.328125 C 3.050781 -0.0546875 2.566406 0.078125 1.953125 0.078125 C 1.285156 0.078125 0.769531 -0.0078125 0.40625 -0.1875 L 0.40625 -0.8125 C 0.632812 -0.71875 0.882812 -0.640625 1.15625 -0.578125 C 1.4375 -0.523438 1.710938 -0.5 1.984375 -0.5 C 2.421875 -0.5 2.75 -0.582031 2.96875 -0.75 C 3.1875 -0.914062 3.296875 -1.144531 3.296875 -1.4375 C 3.296875 -1.632812 3.253906 -1.796875 3.171875 -1.921875 C 3.097656 -2.046875 2.96875 -2.160156 2.78125 -2.265625 C 2.601562 -2.367188 2.328125 -2.488281 1.953125 -2.625 C 1.421875 -2.8125 1.039062 -3.03125 0.8125 -3.28125 C 0.59375 -3.539062 0.484375 -3.878906 0.484375 -4.296875 C 0.484375 -4.734375 0.644531 -5.078125 0.96875 -5.328125 C 1.300781 -5.585938 1.734375 -5.71875 2.265625 -5.71875 C 2.828125 -5.71875 3.34375 -5.617188 3.8125 -5.421875 L 3.609375 -4.84375 C 3.148438 -5.039062 2.695312 -5.140625 2.25 -5.140625 C 1.90625 -5.140625 1.632812 -5.0625 1.4375 -4.90625 C 1.238281 -4.757812 1.140625 -4.554688 1.140625 -4.296875 C 1.140625 -4.097656 1.175781 -3.9375 1.25 -3.8125 C 1.320312 -3.6875 1.441406 -3.570312 1.609375 -3.46875 C 1.785156 -3.363281 2.050781 -3.25 2.40625 -3.125 C 3 -2.914062 3.40625 -2.6875 3.625 -2.4375 C 3.84375 -2.195312 3.953125 -1.882812 3.953125 -1.5 Z M 3.953125 -1.5 "/></g></g></g><g fill="#225aa5" fill-opacity="1"><g transform="translate(166.837834, 9.141626)"><g/></g></g><g fill="#225aa5" fill-opacity="1"><g transform="translate(169.854611, 9.141626)"><g><path d="M 4.328125 0 L 3.625 -1.796875 L 1.359375 -1.796875 L 0.65625 0 L 0 0 L 2.234375 -5.671875 L 2.78125 -5.671875 L 5 0 Z M 3.421875 -2.390625 L 2.765625 -4.140625 C 2.679688 -4.359375 2.59375 -4.628906 2.5 -4.953125 C 2.4375 -4.703125 2.351562 -4.429688 2.25 -4.140625 L 1.59375 -2.390625 Z M 2.03125 -6.203125 C 2.15625 -6.359375 2.285156 -6.550781 2.421875 -6.78125 C 2.566406 -7.007812 2.679688 -7.207031 2.765625 -7.375 L 3.546875 -7.375 L 3.546875 -7.28125 C 3.429688 -7.113281 3.257812 -6.90625 3.03125 -6.65625 C 2.8125 -6.414062 2.625 -6.234375 2.46875 -6.109375 L 2.03125 -6.109375 Z M 2.03125 -6.203125 "/></g></g></g><g fill="#225aa5" fill-opacity="1"><g transform="translate(175.818589, 9.141626)"><g><path d="M 3.265625 -2.953125 L 5.171875 -2.953125 L 5.171875 -0.21875 C 4.878906 -0.113281 4.578125 -0.0390625 4.265625 0 C 3.953125 0.0507812 3.59375 0.078125 3.1875 0.078125 C 2.332031 0.078125 1.664062 -0.175781 1.1875 -0.6875 C 0.71875 -1.195312 0.484375 -1.910156 0.484375 -2.828125 C 0.484375 -3.410156 0.597656 -3.921875 0.828125 -4.359375 C 1.066406 -4.804688 1.40625 -5.144531 1.84375 -5.375 C 2.289062 -5.601562 2.8125 -5.71875 3.40625 -5.71875 C 4.007812 -5.71875 4.570312 -5.609375 5.09375 -5.390625 L 4.84375 -4.8125 C 4.332031 -5.03125 3.835938 -5.140625 3.359375 -5.140625 C 2.671875 -5.140625 2.132812 -4.929688 1.75 -4.515625 C 1.363281 -4.109375 1.171875 -3.546875 1.171875 -2.828125 C 1.171875 -2.054688 1.359375 -1.472656 1.734375 -1.078125 C 2.109375 -0.691406 2.65625 -0.5 3.375 -0.5 C 3.757812 -0.5 4.140625 -0.546875 4.515625 -0.640625 L 4.515625 -2.375 L 3.265625 -2.375 Z M 3.265625 -2.953125 "/></g></g></g><g fill="#225aa5" fill-opacity="1"><g transform="translate(182.534797, 9.141626)"><g><path d="M 3.921875 0 L 0.78125 0 L 0.78125 -5.640625 L 3.921875 -5.640625 L 3.921875 -5.0625 L 1.4375 -5.0625 L 1.4375 -3.25 L 3.765625 -3.25 L 3.765625 -2.65625 L 1.4375 -2.65625 L 1.4375 -0.59375 L 3.921875 -0.59375 Z M 3.921875 0 "/></g></g></g><g fill="#225aa5" fill-opacity="1"><g transform="translate(187.893132, 9.141626)"><g><path d="M 0.78125 0 L 0.78125 -5.640625 L 1.4375 -5.640625 L 1.4375 0 Z M 0.78125 0 "/></g></g></g><g fill="#225aa5" fill-opacity="1"><g transform="translate(191.060356, 9.141626)"><g><path d="M 3.953125 -1.5 C 3.953125 -1 3.769531 -0.609375 3.40625 -0.328125 C 3.050781 -0.0546875 2.566406 0.078125 1.953125 0.078125 C 1.285156 0.078125 0.769531 -0.0078125 0.40625 -0.1875 L 0.40625 -0.8125 C 0.632812 -0.71875 0.882812 -0.640625 1.15625 -0.578125 C 1.4375 -0.523438 1.710938 -0.5 1.984375 -0.5 C 2.421875 -0.5 2.75 -0.582031 2.96875 -0.75 C 3.1875 -0.914062 3.296875 -1.144531 3.296875 -1.4375 C 3.296875 -1.632812 3.253906 -1.796875 3.171875 -1.921875 C 3.097656 -2.046875 2.96875 -2.160156 2.78125 -2.265625 C 2.601562 -2.367188 2.328125 -2.488281 1.953125 -2.625 C 1.421875 -2.8125 1.039062 -3.03125 0.8125 -3.28125 C 0.59375 -3.539062 0.484375 -3.878906 0.484375 -4.296875 C 0.484375 -4.734375 0.644531 -5.078125 0.96875 -5.328125 C 1.300781 -5.585938 1.734375 -5.71875 2.265625 -5.71875 C 2.828125 -5.71875 3.34375 -5.617188 3.8125 -5.421875 L 3.609375 -4.84375 C 3.148438 -5.039062 2.695312 -5.140625 2.25 -5.140625 C 1.90625 -5.140625 1.632812 -5.0625 1.4375 -4.90625 C 1.238281 -4.757812 1.140625 -4.554688 1.140625 -4.296875 C 1.140625 -4.097656 1.175781 -3.9375 1.25 -3.8125 C 1.320312 -3.6875 1.441406 -3.570312 1.609375 -3.46875 C 1.785156 -3.363281 2.050781 -3.25 2.40625 -3.125 C 3 -2.914062 3.40625 -2.6875 3.625 -2.4375 C 3.84375 -2.195312 3.953125 -1.882812 3.953125 -1.5 Z M 3.953125 -1.5 "/></g></g></g><g fill="#225aa5" fill-opacity="1"><g transform="translate(196.360828, 9.141626)"><g><path d="M 0.59375 -0.40625 C 0.59375 -0.582031 0.628906 -0.710938 0.703125 -0.796875 C 0.785156 -0.890625 0.898438 -0.9375 1.046875 -0.9375 C 1.191406 -0.9375 1.304688 -0.890625 1.390625 -0.796875 C 1.472656 -0.710938 1.515625 -0.582031 1.515625 -0.40625 C 1.515625 -0.238281 1.472656 -0.109375 1.390625 -0.015625 C 1.304688 0.0664062 1.191406 0.109375 1.046875 0.109375 C 0.910156 0.109375 0.800781 0.0703125 0.71875 0 C 0.632812 -0.0820312 0.59375 -0.21875 0.59375 -0.40625 Z M 0.59375 -0.40625 "/></g></g></g></g></g></svg>